<?xml version="1.0" encoding="UTF-8"?>
<svg version="1.1" xmlns="http://www.w3.org/2000/svg" viewBox="180 130 1175 770" preserveAspectRatio="xMidYMid meet">

<path d="M0 0 C1.93789385 -0.00866357 1.93789385 -0.00866357 3.91493708 -0.01750216 C5.33918368 -0.01381578 6.76342982 -0.00994561 8.18767548 -0.00591189 C9.7142437 -0.00890958 11.24081041 -0.01278044 12.76737446 -0.01744422 C16.97343636 -0.02774053 21.17941426 -0.02556653 25.38548331 -0.02138886 C29.95729833 -0.01902613 34.52909254 -0.02818719 39.1008997 -0.03587306 C47.11751656 -0.04772986 55.13411064 -0.05208544 63.15073586 -0.05155188 C75.07200179 -0.05075932 86.99323893 -0.06130153 98.91449717 -0.07396745 C122.68591102 -0.09872128 146.4573179 -0.10749176 170.22874286 -0.11250394 C172.07590918 -0.1128957 172.07590918 -0.1128957 173.960392 -0.11329538 C175.81122909 -0.11368579 175.81122909 -0.11368579 177.69945682 -0.11408409 C191.3664801 -0.11716506 205.03350144 -0.12366936 218.70052338 -0.13029677 C259.97297827 -0.1499464 301.24543106 -0.16634968 342.51789093 -0.1691733 C343.85168267 -0.16926793 345.18547441 -0.16936294 346.51926615 -0.16945833 C352.54118775 -0.16988607 358.56310935 -0.17029145 364.58503094 -0.17069669 C367.2703399 -0.17087829 369.95564885 -0.17106318 372.6409578 -0.17124876 C373.98500396 -0.17134078 375.32905011 -0.17143118 376.67309627 -0.17151995 C419.16345089 -0.17433373 461.65375806 -0.19605558 504.14409637 -0.23291022 C551.11235406 -0.27364112 598.08058711 -0.29733183 645.04886436 -0.29763281 C650.05684535 -0.29772964 655.06482633 -0.29789636 660.07280731 -0.29811293 C661.30592384 -0.29815704 662.53904038 -0.29820116 663.80952407 -0.29824661 C683.65906453 -0.29936676 703.5085587 -0.31677997 723.35808425 -0.33993225 C743.30728216 -0.36276915 763.25641751 -0.36700363 783.20562369 -0.35238295 C795.0580237 -0.34422843 806.9102267 -0.34993337 818.76260284 -0.3755638 C826.68197596 -0.39130767 834.60120914 -0.38884624 842.52057888 -0.37165707 C847.03144678 -0.36237873 851.54193508 -0.36091124 856.05277348 -0.38162314 C860.16343194 -0.4003367 864.27340157 -0.39567414 868.38403422 -0.3730322 C869.85515752 -0.36890423 871.32633526 -0.3729952 872.79740023 -0.38672988 C891.79080568 -0.55219731 908.09167731 6.18510287 921.69536591 19.46899408 C928.96453086 26.89437318 933.65145143 34.53542088 937.42192841 44.25415033 C937.67780119 44.87120299 937.93367398 45.48825565 938.19730049 46.12400687 C941.34517904 54.84634421 940.84196386 63.88749291 940.80960846 73.0224151 C940.81378442 74.93981599 940.81926338 76.8572144 940.82592827 78.77460825 C940.84036724 84.02869807 940.83614294 89.2826308 940.82876146 94.53672916 C940.82402825 100.20898995 940.83654105 105.88121684 940.84677887 111.55346674 C940.8639695 122.66042764 940.86480627 133.76733197 940.85956597 144.87430272 C940.85552333 153.90332603 940.85696895 162.93233264 940.86231422 171.96135515 C940.86306265 173.24678983 940.86381107 174.53222451 940.86458217 175.85661175 C940.86611366 178.46804691 940.86765201 181.07948207 940.86919714 183.69091722 C940.87902494 201.22305448 940.8831907 218.75518175 940.87557125 236.28732008 C940.87512549 237.31518311 940.87512549 237.31518311 940.87467073 238.36381105 C940.87222192 243.92804507 940.86961027 249.49227901 940.86698659 255.05651295 C940.85688633 276.75547812 940.86523675 298.45436588 940.88848114 320.15332025 C940.91457116 344.5480203 940.92734741 368.94266263 940.92029339 393.3373791 C940.91680126 406.2480132 940.91903285 419.15858376 940.93654442 432.06920809 C940.95126776 443.06041463 940.95190007 454.05151289 940.93447351 465.04271732 C940.9259621 470.64837776 940.9238176 476.25384476 940.93912506 481.8594951 C940.95297769 486.99606016 940.9482013 492.13226616 940.92888582 497.26881047 C940.9251273 499.122027 940.92804349 500.97527232 940.93849748 502.82846317 C940.99393447 513.41266825 940.36800824 522.29617387 936.42192841 532.25415033 C936.14698199 532.95929169 935.87203558 533.66443305 935.58875746 534.39094234 C931.98188808 543.00148247 927.07245403 549.77863854 920.42192841 556.25415033 C919.83153778 556.87676752 919.24114716 557.49938471 918.63286591 558.14086908 C914.47052044 562.22070109 909.75795463 564.87349888 904.60942841 567.50415033 C903.96997284 567.83366693 903.33051727 568.16318353 902.67168427 568.50268549 C892.038679 573.68984089 881.89480356 574.69306625 870.17402077 574.63446707 C868.64388925 574.63790502 867.11376022 574.6426548 865.58363634 574.64858803 C861.38630495 574.66106973 857.18917743 574.65496031 852.99184521 574.64575436 C848.42261151 574.63903668 843.85341254 574.64971463 839.28418624 574.6581502 C831.27835939 574.67052007 823.27259115 574.67172814 815.26675797 574.66559976 C803.36171912 574.65651093 791.4567345 574.66453895 779.55169982 574.675891 C758.28900558 574.69556535 737.02633571 574.69790386 715.76363453 574.6926958 C697.15512951 574.68814007 678.54663414 574.68873601 659.93812943 574.69453615 C657.44279767 574.69529301 654.94746591 574.69604899 652.45213415 574.6968041 C648.69197649 574.69794928 644.93181884 574.69909915 641.17166118 574.70026334 C606.20942918 574.71096965 571.2472004 574.71569223 536.28496742 574.70779318 C534.30773142 574.70734742 534.30773142 574.70734742 532.29055125 574.70689265 C525.60951189 574.70536418 518.92847254 574.70377347 512.2474332 574.70215075 C511.58412247 574.70198973 510.92081175 574.70182871 510.2374007 574.7016628 C504.85471484 574.70035517 504.85471484 574.70035517 502.1899687 574.69970161 C459.76059975 574.6893099 417.33127228 574.69707776 374.90190887 574.72070307 C327.99296882 574.74677966 281.0840492 574.75962558 234.17510116 574.75251532 C229.17452042 574.75179924 224.17393967 574.75112486 219.17335892 574.75047487 C217.94207669 574.75030506 216.71079447 574.75013525 215.44220066 574.7499603 C196.84644609 574.74765623 178.25071398 574.75563944 159.65496445 574.76876634 C138.50974081 574.78366626 117.36456986 574.7845359 96.21934737 574.76669543 C84.38431058 574.75712143 72.54939661 574.7585898 60.71436798 574.77593012 C52.80925672 574.78640443 44.90423919 574.78234057 36.99913719 574.76645008 C32.4948894 574.75780267 27.9908826 574.7554318 23.48664702 574.7707194 C19.38441968 574.78451115 15.28263934 574.77971049 11.18043793 574.76043421 C9.71010637 574.75671586 8.23973834 574.75960846 6.76943985 574.7701473 C-12.28379546 574.89724489 -28.35686583 568.3626768 -41.91791534 555.01586908 C-56.97168782 539.38735639 -61.19558475 522.22650814 -61.09273529 501.1006164 C-61.0980679 499.17792469 -61.10513768 497.25523716 -61.11378235 495.3325575 C-61.1323418 490.07766435 -61.12612778 484.82305432 -61.11562932 479.56814975 C-61.10861826 473.88975866 -61.12464972 468.21142461 -61.13762665 462.53305048 C-61.15924017 451.41979989 -61.15914648 440.3066518 -61.1510011 429.19338711 C-61.14469455 420.15825096 -61.14584416 411.12314465 -61.15227318 402.08800882 C-61.15317483 400.8007827 -61.15407649 399.51355657 -61.15500547 398.18732359 C-61.15685672 395.5721075 -61.15871928 392.95689141 -61.16059303 390.34167533 C-61.17245831 372.79013173 -61.17687828 355.23860372 -61.165658 337.68705934 C-61.16522003 337.00138295 -61.16478206 336.31570655 -61.16433081 335.60925208 C-61.16072434 330.04180824 -61.15688939 324.47436456 -61.15303988 318.90692089 C-61.13819458 297.19400412 -61.14697156 275.48121316 -61.17499542 253.76831049 C-61.20645426 229.34755909 -61.2213156 204.92689433 -61.21119541 180.5061205 C-61.21017289 177.9000548 -61.20917828 175.29398909 -61.2082119 172.68792337 C-61.20773551 171.40579351 -61.20725912 170.12366365 -61.20676829 168.80268136 C-61.20460677 159.7831146 -61.21439435 150.76360657 -61.22898293 141.74405283 C-61.24652508 130.74526826 -61.24636175 119.74665462 -61.22363127 108.74787672 C-61.2125062 103.1398855 -61.20928752 97.53219521 -61.22793198 91.92421716 C-61.24480331 86.78327682 -61.23829564 81.64289833 -61.21371519 76.50199394 C-61.20885331 74.64950583 -61.21228863 72.79697181 -61.22520263 70.94452234 C-61.35465096 50.91916077 -55.98796201 33.7383386 -41.63275909 19.11743158 C-30.68255586 8.53223513 -15.49675644 0.01126413 0 0 Z " fill="#2782D6" transform="translate(326.5780715942383,225.74584966897964)"/>
<path d="M0 0 C63.38743695 -0.20165675 63.38743695 -0.20165675 89.91210938 -0.24414062 C95.9826667 -0.25392896 102.05322338 -0.26403107 108.1237793 -0.2746582 C108.88455149 -0.27597695 109.64532368 -0.27729569 110.42914957 -0.2786544 C122.6871914 -0.30035971 134.94511513 -0.33975581 147.2030871 -0.38576398 C159.79714037 -0.43263688 172.3911321 -0.4603182 184.98526901 -0.47044247 C192.74718835 -0.47727929 200.5087739 -0.49881726 208.27059042 -0.53958233 C214.23746599 -0.56931074 220.20405868 -0.572247 226.17101669 -0.56553841 C228.60776121 -0.56690726 231.04451907 -0.57676313 233.48118782 -0.59602737 C246.58394258 -0.69448449 257.91095206 -0.44377848 270 5 C271.01402673 5.45599925 272.02805346 5.9119985 273.07280827 6.38181591 C288.70040886 13.81213137 299.86448584 28.18518333 306 44 C306.38380918 44.92557899 306.38380918 44.92557899 306.77537209 45.86985654 C309.92325064 54.59219388 309.42003546 63.63334257 309.38768005 72.76826477 C309.39185601 74.68566566 309.39733497 76.60306407 309.40399987 78.52045792 C309.41843883 83.77454773 309.41421453 89.02848047 309.40683305 94.28257883 C309.40209984 99.95483962 309.41461264 105.62706651 309.42485046 111.29931641 C309.44204109 122.40627731 309.44287787 133.51318164 309.43763756 144.62015239 C309.43359492 153.6491757 309.43504054 162.67818231 309.44038582 171.70720482 C309.44113424 172.9926395 309.44188266 174.27807418 309.44265376 175.60246142 C309.44418526 178.21389658 309.4457236 180.82533174 309.44726873 183.43676689 C309.45709653 200.96890415 309.4612623 218.50103142 309.45364285 236.03316975 C309.45334567 236.71841177 309.4530485 237.40365379 309.45274232 238.10966072 C309.45029352 243.67389474 309.44768186 249.23812868 309.44505819 254.80236262 C309.43495792 276.50132779 309.44330834 298.20021555 309.46655273 319.89916992 C309.49264276 344.29386997 309.505419 368.68851229 309.49836498 393.08322877 C309.49487285 405.99386287 309.49710444 418.90443343 309.51461601 431.81505775 C309.52933935 442.8062643 309.52997166 453.79736256 309.5125451 464.78856698 C309.50403369 470.39422742 309.50188919 475.99969443 309.51719666 481.60534477 C309.53104928 486.74190983 309.5262729 491.87811583 309.50695742 497.01466014 C309.50319889 498.86787667 309.50611508 500.72112199 309.51656907 502.57431284 C309.57200606 513.15851792 308.94607983 522.04202354 305 532 C304.72505359 532.70514136 304.45010717 533.41028272 304.16682905 534.136792 C300.55995967 542.74733214 295.65052562 549.52448821 289 556 C288.40960937 556.62261719 287.81921875 557.24523437 287.2109375 557.88671875 C283.04859204 561.96655076 278.33602623 564.61934855 273.1875 567.25 C272.54804443 567.5795166 271.90858887 567.9090332 271.24975586 568.24853516 C262.12638471 572.69923774 253.13535309 574.45306863 243.03437805 574.36076355 C241.98775708 574.36332682 240.94113611 574.3658901 239.86279935 574.36853105 C236.38664321 574.37343773 232.91092998 574.35702742 229.43481445 574.34057617 C226.93076081 574.33972923 224.42670641 574.34020636 221.9226532 574.34190369 C216.54744682 574.34258489 211.17237599 574.33412472 205.79720497 574.31719017 C198.02580599 574.29272232 190.25445973 574.28498698 182.48302641 574.2812262 C169.8718736 574.27467387 157.26077929 574.25474593 144.6496582 574.22631836 C132.40519497 574.19874614 120.16074775 574.17756251 107.91625977 574.16479492 C107.15276197 574.16399093 106.38926417 574.16318694 105.60263008 574.16235858 C99.63083533 574.15611966 93.65904024 574.15024911 87.68724501 574.14449489 C58.45810964 574.1162365 29.22912083 574.05587159 0 574 C0 503.05 0 432.1 0 359 C-7.26 359 -14.52 359 -22 359 C-40.34134291 355.11309289 -53.96976939 348.3944296 -67 335 C-67.60328125 334.39414062 -68.2065625 333.78828125 -68.828125 333.1640625 C-81.90910237 319.05037639 -86.37007906 301.25266371 -86.3125 282.5625 C-86.32861328 281.52029297 -86.34472656 280.47808594 -86.36132812 279.40429688 C-86.36786024 268.86799338 -84.22155846 259.27478904 -79.3125 249.9375 C-78.96292236 249.26122559 -78.61334473 248.58495117 -78.25317383 247.88818359 C-68.00502138 228.54051717 -52.76001545 216.74325587 -32.5 209.05078125 C-21.27058192 205.73459372 -12.70118754 207 0 207 C0 138.69 0 70.38 0 0 Z " fill="#FBB820" transform="translate(958,226)"/>
<path d="M0 0 C1.05137038 -0.00170885 2.10274076 -0.0034177 3.18597084 -0.00517833 C6.70209903 -0.0084675 10.21803557 0.00252119 13.73414612 0.01345825 C16.257314 0.01402249 18.78048221 0.01370556 21.3036499 0.01257324 C26.73236966 0.01211809 32.16102792 0.01778382 37.58973503 0.02904892 C45.43865278 0.04532556 53.2875473 0.05051414 61.1364801 0.0530249 C73.87184812 0.05739861 86.60719047 0.07069892 99.34254456 0.08963013 C111.71135838 0.10799732 124.08016518 0.12212677 136.44898987 0.13064575 C137.21959466 0.13118175 137.99019945 0.13171774 138.78415591 0.13226998 C144.81108415 0.136429 150.83801254 0.14034278 156.864941 0.14417911 C186.38980702 0.16303533 215.91460877 0.20327457 245.43946838 0.24050903 C245.43946838 69.21050903 245.43946838 138.18050903 245.43946838 209.24050903 C240.48946838 210.89050903 235.53946838 212.54050903 230.43946838 214.24050903 C221.73688724 219.03092067 214.46970655 224.24773218 207.43946838 231.24050903 C206.8271637 231.81800903 206.21485901 232.39550903 205.58399963 232.99050903 C193.15156512 245.73588813 186.38114613 265.44690352 186.28125 282.9287262 C186.27146118 284.23412857 186.26167236 285.53953094 186.25158691 286.88449097 C186.24568422 288.31362879 186.23987368 289.74276699 186.23414612 291.17190552 C186.22455681 292.69016276 186.21454613 294.2084174 186.20414734 295.72666931 C186.17720618 299.83354506 186.15613849 303.94043217 186.13614535 308.04734683 C186.11421893 312.34483309 186.08686292 316.64228474 186.06008911 320.93974304 C186.01025198 329.07099705 185.96527997 337.20227035 185.92206675 345.33356196 C185.87261745 354.59354676 185.81772794 363.85349684 185.76238716 373.11344802 C185.64870502 392.15576961 185.54202916 411.19812452 185.43946838 430.24050903 C193.68946838 430.24050903 201.93946838 430.24050903 210.43946838 430.24050903 C210.43946838 399.88050903 210.43946838 369.52050903 210.43946838 338.24050903 C213.07946838 340.22050903 215.71946838 342.20050903 218.43946838 344.24050903 C227.58717923 350.61618629 236.56317794 354.8235556 247.43946838 357.24050903 C246.77946838 357.57050903 246.11946838 357.90050903 245.43946838 358.24050903 C245.43946838 429.52050903 245.43946838 500.80050903 245.43946838 574.24050903 C181.72041812 574.40183443 181.72041812 574.40183443 155.07423401 574.43582153 C148.97568214 574.4436524 142.87713068 574.45173415 136.77857971 574.4602356 C136.01428109 574.46129059 135.24998247 574.46234559 134.46252328 574.46343255 C122.14173245 574.48080489 109.82101668 574.51232635 97.50027028 574.54912022 C84.84520332 574.58659581 72.19017551 574.60875884 59.53505534 574.61686301 C51.73326093 574.62233711 43.93167866 574.63959337 36.12994959 574.6721749 C30.13613629 574.69592315 24.14250347 574.69831225 18.14863777 574.69293976 C15.69816028 574.69403646 13.24767445 574.70194294 10.79724503 574.71733093 C-12.91271812 574.85886765 -12.91271812 574.85886765 -23.56053162 570.24050903 C-25.38777771 569.48060669 -25.38777771 569.48060669 -27.25193787 568.70535278 C-44.20461719 559.68698868 -56.32985902 545.77036174 -62.67289639 527.6094799 C-65.31137337 518.80564708 -65.11952132 510.19180206 -65.07519531 501.0869751 C-65.08052792 499.16428339 -65.0875977 497.24159587 -65.09624237 495.3189162 C-65.11480182 490.06402306 -65.1085878 484.80941303 -65.09808934 479.55450845 C-65.09107828 473.87611736 -65.10710974 468.19778332 -65.12008667 462.51940918 C-65.14170019 451.40615859 -65.1416065 440.2930105 -65.13346113 429.17974581 C-65.12715457 420.14460966 -65.12830418 411.10950336 -65.1347332 402.07436752 C-65.13563486 400.7871414 -65.13653651 399.49991527 -65.13746549 398.17368229 C-65.13931674 395.5584662 -65.1411793 392.94325011 -65.14305305 390.32803403 C-65.15491833 372.77649043 -65.1593383 355.22496242 -65.14811802 337.67341805 C-65.14768005 336.98774165 -65.14724208 336.30206525 -65.14679084 335.59561078 C-65.14318436 330.02816694 -65.13934941 324.46072326 -65.1354999 318.89327959 C-65.1206546 297.18036282 -65.12943158 275.46757186 -65.15745544 253.75466919 C-65.18891428 229.33391779 -65.20377563 204.91325303 -65.19365543 180.49247921 C-65.19263291 177.88641351 -65.1916383 175.28034779 -65.19067192 172.67428207 C-65.19019553 171.39215221 -65.18971914 170.11002235 -65.18922831 168.78904007 C-65.1870668 159.7694733 -65.19685438 150.74996527 -65.21144295 141.73041153 C-65.2289851 130.73162697 -65.22882177 119.73301332 -65.20609129 108.73423542 C-65.19496622 103.1262442 -65.19174755 97.51855391 -65.210392 91.91057587 C-65.22726333 86.76963552 -65.22075566 81.62925703 -65.19617521 76.48835264 C-65.19131334 74.63586453 -65.19474865 72.78333052 -65.20766265 70.93088104 C-65.33711099 50.90551947 -59.97042203 33.7246973 -45.61521912 19.10379028 C-37.5741734 11.33077943 -28.14162722 5.84967726 -17.56053162 2.24050903 C-16.5645291 1.8954085 -15.56852659 1.55030796 -14.54234219 1.19474983 C-9.73077855 -0.15727627 -4.96491333 -0.02964459 0 0 Z " fill="#4AA540" transform="translate(330.56053161621094,225.75949096679688)"/>
<path d="M0 0 C63.03 0 126.06 0 191 0 C191 68.31 191 136.62 191 207 C183.41 207.33 175.82 207.66 168 208 C149.28486667 211.65529948 131.34935819 221.20042943 120 237 C107.24209449 256.8620186 102.17076324 278.69858925 107.125 302.1875 C112.97578136 322.46113772 124.43831858 338.68508233 143 349 C158.62215455 357.37067684 172.93612246 358.17891466 191 359 C191 429.95 191 500.9 191 574 C127.97 574 64.94 574 0 574 C0 503.05 0 432.1 0 359 C4.62 358.67 9.24 358.34 14 358 C27.50687663 355.29862467 40.21090157 350.72072204 51 342 C51.75667969 341.41734375 52.51335938 340.8346875 53.29296875 340.234375 C63.02475861 332.26134234 69.38029698 321.57708709 74 310 C74.52400391 308.76056641 74.52400391 308.76056641 75.05859375 307.49609375 C81.88115641 289.40639442 79.09084919 267.08367413 71.41601562 249.87817383 C67.30560668 241.20098569 61.89413084 234.61067172 55 228 C54.29746094 227.31292969 53.59492187 226.62585938 52.87109375 225.91796875 C37.82396562 211.96517721 19.88645723 208.42046123 0 207 C0 138.69 0 70.38 0 0 Z " fill="#1A65AF" transform="translate(767,226)"/>
<path d="M0 0 C0 189.42 0 378.84 0 574 C-80.79275129 574 -80.79275129 574 -100.33984375 554.76171875 C-115.39361623 539.13320606 -119.61751316 521.97235781 -119.5146637 500.84646606 C-119.51999631 498.92377436 -119.52706609 497.00108683 -119.53571075 495.07840717 C-119.55427021 489.82351402 -119.54805618 484.56890399 -119.53755772 479.31399941 C-119.53054666 473.63560833 -119.54657813 467.95727428 -119.55955505 462.27890015 C-119.58116857 451.16564955 -119.58107489 440.05250147 -119.57292951 428.93923678 C-119.56662296 419.90410063 -119.56777256 410.86899432 -119.57420158 401.83385849 C-119.57510324 400.54663236 -119.57600489 399.25940624 -119.57693387 397.93317326 C-119.57878512 395.31795716 -119.58064769 392.70274108 -119.58252143 390.087525 C-119.59438671 372.5359814 -119.59880669 354.98445339 -119.5875864 337.43290901 C-119.58714843 336.74723261 -119.58671046 336.06155622 -119.58625922 335.35510175 C-119.58265274 329.78765791 -119.57881779 324.22021423 -119.57496829 318.65277055 C-119.56012298 296.93985378 -119.56889997 275.22706283 -119.59692383 253.51416016 C-119.62838266 229.09340875 -119.64324401 204.672744 -119.63312382 180.25197017 C-119.6321013 177.64590447 -119.63110668 175.03983876 -119.6301403 172.43377304 C-119.62966391 171.15164318 -119.62918752 169.86951332 -119.6286967 168.54853103 C-119.62653518 159.52896427 -119.63632276 150.50945624 -119.65091133 141.4899025 C-119.66845348 130.49111793 -119.66829015 119.49250429 -119.64555968 108.49372639 C-119.63443461 102.88573517 -119.63121593 97.27804488 -119.64986038 91.67006683 C-119.66673171 86.52912649 -119.66022405 81.388748 -119.63564359 76.24784361 C-119.63078172 74.3953555 -119.63421704 72.54282148 -119.64713103 70.69037201 C-119.77657937 50.66501043 -114.40989041 33.48418827 -100.0546875 18.86328125 C-72.24439264 -8.02000378 -38.40942611 0 0 0 Z " fill="#18893D" transform="translate(385,226)"/>
<path d="M0 0 C31.35 0 62.7 0 95 0 C95 189.42 95 378.84 95 574 C63.65 574 32.3 574 0 574 C0 503.05 0 432.1 0 359 C-7.26 359 -14.52 359 -22 359 C-40.34134291 355.11309289 -53.96976939 348.3944296 -67 335 C-67.60328125 334.39414062 -68.2065625 333.78828125 -68.828125 333.1640625 C-81.90910237 319.05037639 -86.37007906 301.25266371 -86.3125 282.5625 C-86.32861328 281.52029297 -86.34472656 280.47808594 -86.36132812 279.40429688 C-86.36786024 268.86799338 -84.22155846 259.27478904 -79.3125 249.9375 C-78.96292236 249.26122559 -78.61334473 248.58495117 -78.25317383 247.88818359 C-68.00502138 228.54051717 -52.76001545 216.74325587 -32.5 209.05078125 C-21.27058192 205.73459372 -12.70118754 207 0 207 C0 138.69 0 70.38 0 0 Z " fill="#DA2E32" transform="translate(958,226)"/>
<path d="M0 0 C31.68 0 63.36 0 96 0 C96 189.42 96 378.84 96 574 C64.32 574 32.64 574 0 574 C0 384.58 0 195.16 0 0 Z " fill="#F06A16" transform="translate(1053,226)"/>
<path d="M0 0 C31.35 0 62.7 0 95 0 C95 68.97 95 137.94 95 209 C90.05 210.65 85.1 212.3 80 214 C71.29741885 218.79041164 64.03023816 224.00722314 57 231 C56.38769531 231.5775 55.77539062 232.155 55.14453125 232.75 C42.71209673 245.49537909 35.94167775 265.20639449 35.84178162 282.68821716 C35.8319928 283.99361954 35.82220398 285.29902191 35.81211853 286.64398193 C35.80621584 288.07311975 35.8004053 289.50225795 35.79467773 290.93139648 C35.78508843 292.44965373 35.77507774 293.96790836 35.76467896 295.48616028 C35.7377378 299.59303603 35.71667011 303.69992314 35.69667697 307.8068378 C35.67475055 312.10432405 35.64739454 316.40177571 35.62062073 320.69923401 C35.57078359 328.83048801 35.52581159 336.96176131 35.48259836 345.09305292 C35.43314907 354.35303773 35.37825955 363.61298781 35.32291877 372.87293899 C35.20923663 391.91526058 35.10256078 410.95761549 35 430 C43.25 430 51.5 430 60 430 C60 399.64 60 369.28 60 338 C62.64 339.98 65.28 341.96 68 344 C77.14771084 350.37567725 86.12370956 354.58304657 97 357 C96.34 357.33 95.68 357.66 95 358 C95 429.28 95 500.56 95 574 C63.65 574 32.3 574 0 574 C0 384.58 0 195.16 0 0 Z " fill="#72BA4B" transform="translate(481,226)"/>
<path d="M0 0 C31.68 0 63.36 0 96 0 C96 68.31 96 136.62 96 207 C88.41 207.33 80.82 207.66 73 208 C54.28486667 211.65529948 36.34935819 221.20042943 25 237 C12.24209449 256.8620186 7.17076324 278.69858925 12.125 302.1875 C17.97578136 322.46113772 29.43831858 338.68508233 48 349 C63.62215455 357.37067684 77.93612246 358.17891466 96 359 C96 429.95 96 500.9 96 574 C64.32 574 32.64 574 0 574 C-0.04030303 537.54814461 -0.04030303 537.54814461 -0.04882812 522.296875 C-0.05476644 511.75780756 -0.06175511 501.21874811 -0.07543945 490.6796875 C-0.08540003 483.00484675 -0.09185671 475.33001247 -0.09408849 467.65516543 C-0.09539326 463.59061047 -0.09846437 459.526074 -0.10573006 455.46152496 C-0.11251191 451.63669024 -0.11461253 447.81188164 -0.11310768 443.98704147 C-0.11338303 442.58257022 -0.11537533 441.17809811 -0.11920547 439.77363205 C-0.12417643 437.85700867 -0.12238968 435.94037131 -0.12025452 434.02374268 C-0.12163721 432.41429213 -0.12163721 432.41429213 -0.12304783 430.77232742 C-0.01517724 428.34195049 0.29689687 426.31783982 1 424 C1.66 424 2.32 424 3 424 C3 420.37 3 416.74 3 413 C6.96 413 10.92 413 15 413 C15 416.3 15 419.6 15 423 C15.99 423 16.98 423 18 423 C18 415.41 18 407.82 18 400 C17.01 400 16.02 400 15 400 C15 403.3 15 406.6 15 410 C11.04 410 7.08 410 3 410 C3 406.7 3 403.4 3 400 C2.01 400 1.02 400 0 400 C0 268 0 136 0 0 Z " fill="#1C4E7B" transform="translate(862,226)"/>
<path d="M0 0 C1.42033063 1.2007757 2.81480985 2.43254058 4.1875 3.6875 C5.52554688 4.88826172 5.52554688 4.88826172 6.890625 6.11328125 C20.46795878 18.93013595 27.58709737 34.53912901 31.1875 52.6875 C31.8475 52.3575 32.5075 52.0275 33.1875 51.6875 C33.1875 151.0175 33.1875 250.3475 33.1875 352.6875 C1.8375 352.6875 -29.5125 352.6875 -61.8125 352.6875 C-61.8125 281.4075 -61.8125 210.1275 -61.8125 136.6875 C-67.0925 134.7075 -72.3725 132.7275 -77.8125 130.6875 C-84.75509294 126.67940511 -89.65248245 122.96751504 -95.8125 117.6875 C-96.1425 147.7175 -96.4725 177.7475 -96.8125 208.6875 C-105.0625 208.6875 -113.3125 208.6875 -121.8125 208.6875 C-121.88211876 188.85020429 -121.93557157 169.01294339 -121.96793652 149.17555046 C-121.98336741 139.96350811 -122.0043842 130.75154333 -122.03881836 121.53955078 C-122.06883692 113.5049713 -122.08810242 105.47044803 -122.09476548 97.43581402 C-122.09865676 93.18643613 -122.10772185 88.93721899 -122.12969017 84.68789291 C-122.15025278 80.67747947 -122.15629446 76.66729099 -122.15182304 72.65682983 C-122.1526395 71.19527076 -122.15848631 69.73370312 -122.17011642 68.27219009 C-122.33851376 45.99261965 -115.64885616 25.36177926 -100.12109375 8.99609375 C-73.13320411 -17.99179589 -31.37819575 -23.21203429 0 0 Z " fill="#31AAAF" transform="translate(637.8125,447.3125)"/>
<path d="M0 0 C31.68 0 63.36 0 96 0 C96 189.42 96 378.84 96 574 C95.67 574 95.34 574 95 574 C94.67 480.94 94.34 387.88 94 292 C93.67 292 93.34 292 93 292 C92.97421875 290.88625 92.9484375 289.7725 92.921875 288.625 C92.24656245 268.02910416 87.22883077 248.61055607 73 233 C72.27296875 232.18144531 71.5459375 231.36289062 70.796875 230.51953125 C58.35801566 217.25810218 43.61550991 211.20281998 26 208 C17.42 208 8.84 208 0 208 C0 139.36 0 70.72 0 0 Z " fill="#30A9B0" transform="translate(576,226)"/>
<path d="M0 0 C1.42033063 1.2007757 2.81480985 2.43254058 4.1875 3.6875 C5.52554688 4.88826172 5.52554688 4.88826172 6.890625 6.11328125 C19.32065613 17.84709478 29.1917193 34.05441261 30.37646484 51.46435547 C30.45534309 54.47931324 30.46578539 57.48415963 30.4375 60.5 C30.42408569 62.10101563 30.42408569 62.10101563 30.41040039 63.734375 C30.0955342 85.06044145 23.12284252 101.39626089 8.375 116.9375 C-6.45699055 131.22685675 -25.63995247 138.22931568 -46.0559082 138.04125977 C-64.79151947 137.48040893 -82.42726647 131.07273353 -95.8125 117.6875 C-96.1425 147.7175 -96.4725 177.7475 -96.8125 208.6875 C-105.0625 208.6875 -113.3125 208.6875 -121.8125 208.6875 C-121.88211876 188.85020429 -121.93557157 169.01294339 -121.96793652 149.17555046 C-121.98336741 139.96350811 -122.0043842 130.75154333 -122.03881836 121.53955078 C-122.06883692 113.5049713 -122.08810242 105.47044803 -122.09476548 97.43581402 C-122.09865676 93.18643613 -122.10772185 88.93721899 -122.12969017 84.68789291 C-122.15025278 80.67747947 -122.15629446 76.66729099 -122.15182304 72.65682983 C-122.1526395 71.19527076 -122.15848631 69.73370312 -122.17011642 68.27219009 C-122.33851376 45.99261965 -115.64885616 25.36177926 -100.12109375 8.99609375 C-73.13320411 -17.99179589 -31.37819575 -23.21203429 0 0 Z " fill="#FAFCFB" transform="translate(637.8125,447.3125)"/>
<path d="M0 0 C8.25 0 16.5 0 25 0 C25.13955482 19.19479989 25.24630289 38.38945405 25.31087303 57.58465862 C25.34166579 66.49956847 25.38356304 75.41415517 25.45263672 84.32885742 C25.51288999 92.10897353 25.55125474 99.88885535 25.56453097 107.66919833 C25.57227809 111.77985456 25.59017043 115.88984121 25.63438034 120.00028038 C25.92762281 148.3728872 23.41502815 173.05616192 2.6875 194.37890625 C-13.79897911 209.99350425 -33.98791686 215.6844665 -56.17578125 215.3359375 C-76.22469307 214.53964066 -93.26541165 205.11847436 -107 191 C-107.90492188 190.09121094 -107.90492188 190.09121094 -108.828125 189.1640625 C-121.90910237 175.05037639 -126.37007906 157.25266371 -126.3125 138.5625 C-126.33666992 136.99918945 -126.33666992 136.99918945 -126.36132812 135.40429688 C-126.36786024 124.86799338 -124.22155846 115.27478904 -119.3125 105.9375 C-118.96292236 105.26122559 -118.61334473 104.58495117 -118.25317383 103.88818359 C-108.00502138 84.54051717 -92.76001545 72.74325587 -72.5 65.05078125 C-52.3822896 59.1097699 -31.79992703 62.89066072 -13.73046875 72.609375 C-8.89797579 75.70621866 -4.48190324 79.41447741 0 83 C0 55.61 0 28.22 0 0 Z " fill="#FBFAFA" transform="translate(998,370)"/>
<path d="M0 0 C1.05445313 0.3403125 2.10890625 0.680625 3.1953125 1.03125 C21.95507839 7.59495059 37.07388156 21.31697863 46 39 C50.90309133 49.91252122 53.37347905 59.8734249 53.25 71.8125 C53.23658569 73.27260498 53.23658569 73.27260498 53.22290039 74.76220703 C52.94123942 92.22518705 48.10732318 107.30252373 37 121 C36.34515625 121.82886719 35.6903125 122.65773438 35.015625 123.51171875 C24.25921147 136.32912392 7.59005565 146.18352729 -9.15625 148.79296875 C-32.48126647 150.49108121 -54.41296791 146.90319013 -72.70263672 131.14282227 C-83.91227358 121.05273418 -92.04247736 108.61767034 -96 94 C-96.16918945 93.3822168 -96.33837891 92.76443359 -96.51269531 92.12792969 C-101.72280214 71.33410441 -97.67996813 50.2374032 -87 32 C-84.88071668 28.77109192 -82.57890101 25.87243446 -80 23 C-79.28328125 22.19046875 -78.5665625 21.3809375 -77.828125 20.546875 C-69.23357974 11.39059476 -59.37843122 4.97972843 -47.6875 0.5 C-47.05440918 0.25668945 -46.42131836 0.01337891 -45.76904297 -0.23730469 C-31.91907146 -5.15934385 -13.74556289 -4.72146759 0 0 Z " fill="#FAFBFC" transform="translate(793,436)"/>
<path d="M0 0 C1.30776816 3.92330447 1.13565525 7.65095245 1.12304783 11.74005413 C1.12420167 12.64848396 1.12535552 13.55691379 1.12654433 14.49287179 C1.12921065 17.56506467 1.12468867 20.6372061 1.12025452 23.70939636 C1.12069021 25.92287865 1.1215651 28.13636089 1.12284368 30.34984285 C1.12508891 36.45431489 1.12106696 42.55876953 1.11606562 48.66323936 C1.11220326 54.563387 1.11302517 60.46353268 1.11374746 66.36368127 C1.11506262 78.43652481 1.11171518 90.50936288 1.10573006 102.58220482 C1.09981737 114.53953262 1.09596499 126.49685814 1.09487724 138.45418739 C1.0948085 139.19706305 1.09473976 139.9399387 1.09466894 140.70532574 C1.09433062 144.47786294 1.09402923 148.25040014 1.09374207 152.02293734 C1.09164046 178.75870131 1.08489976 205.49446231 1.07543945 232.23022461 C1.06625826 258.20711247 1.05917306 284.18399952 1.05493164 310.16088867 C1.05480011 310.96130806 1.05466859 311.76172745 1.05453308 312.58640198 C1.05321458 320.62438547 1.05193876 328.66236897 1.05069422 336.70035247 C1.04815786 353.07532556 1.04533661 369.4502986 1.04234314 385.82527161 C1.04220585 386.5782018 1.04206856 387.33113199 1.04192711 388.10687825 C1.03272312 438.40458676 1.01685677 488.70229354 1 539 C-9.29336668 534.02370151 -15.5291272 523.47816687 -19.39805145 513.06258001 C-23.13873156 502.29820621 -23.84957771 492.56838608 -23.75517273 481.24519348 C-23.76138566 479.31818209 -23.77021408 477.3911777 -23.78139812 475.46418875 C-23.80431131 470.22045232 -23.79029918 464.97739279 -23.76968896 459.73367131 C-23.75396196 454.05876503 -23.77301585 448.38395559 -23.78749084 442.70906067 C-23.81024634 431.61314962 -23.80088404 420.51749144 -23.77998998 409.4215856 C-23.76366946 400.40086259 -23.75951536 391.38020834 -23.76395607 382.35947227 C-23.76458675 381.0729236 -23.76521742 379.78637492 -23.76586721 378.46083992 C-23.76721333 375.84683149 -23.76859291 373.23282307 -23.77000556 370.61881467 C-23.781586 346.83910224 -23.76011978 323.0595394 -23.72413273 299.27985945 C-23.69151883 277.59968863 -23.68699601 255.91968721 -23.70678711 234.23950195 C-23.71183052 228.68497382 -23.71683526 223.13044568 -23.72152996 217.57591724 C-23.72210814 216.89195662 -23.72268632 216.207996 -23.72328203 215.5033093 C-23.73816433 197.35173941 -23.72976323 179.20018694 -23.71446449 161.0486185 C-23.71230165 158.44543915 -23.71015255 155.8422598 -23.70801735 153.23908043 C-23.70695098 151.9584255 -23.70588462 150.67777058 -23.70478594 149.35830793 C-23.69832746 140.35121419 -23.70307014 131.34416642 -23.71204185 122.33707619 C-23.72259637 111.35669742 -23.71501556 100.37650487 -23.68458607 89.3961604 C-23.66949801 83.79827038 -23.66224133 78.20067383 -23.67677689 72.60277557 C-23.68986095 67.47127078 -23.67957889 62.34034545 -23.65121815 57.20890721 C-23.64497625 55.35993979 -23.64700632 53.51092041 -23.65848859 51.6619781 C-23.76821573 32.40695258 -18.83153344 16.37511163 -5.9296875 1.58203125 C-4 0 -4 0 0 0 Z " fill="#0A7539" transform="translate(289,245)"/>
<path d="M0 0 C9.71335595 8.32573367 15.36571234 16.05472404 20 28 C20.25587279 28.61705266 20.51174558 29.23410531 20.77537209 29.86985654 C23.92325064 38.59219388 23.42003546 47.63334257 23.38768005 56.76826477 C23.39185601 58.68566566 23.39733497 60.60306407 23.40399987 62.52045792 C23.41843883 67.77454773 23.41421453 73.02848047 23.40683305 78.28257883 C23.40209984 83.95483962 23.41461264 89.62706651 23.42485046 95.29931641 C23.44204109 106.40627731 23.44287787 117.51318164 23.43763756 128.62015239 C23.43359492 137.6491757 23.43504054 146.67818231 23.44038582 155.70720482 C23.44113424 156.9926395 23.44188266 158.27807418 23.44265376 159.60246142 C23.44418526 162.21389658 23.4457236 164.82533174 23.44726873 167.43676689 C23.45709653 184.96890415 23.4612623 202.50103142 23.45364285 220.03316975 C23.45319709 221.06103278 23.45319709 221.06103278 23.45274232 222.10966072 C23.45029352 227.67389474 23.44768186 233.23812868 23.44505819 238.80236262 C23.43495792 260.50132779 23.44330834 282.20021555 23.46655273 303.89916992 C23.49264276 328.29386997 23.505419 352.68851229 23.49836498 377.08322877 C23.49487285 389.99386287 23.49710444 402.90443343 23.51461601 415.81505775 C23.52933935 426.8062643 23.52997166 437.79736256 23.5125451 448.78856698 C23.50403369 454.39422742 23.50188919 459.99969443 23.51719666 465.60534477 C23.53104928 470.74190983 23.5262729 475.87811583 23.50695742 481.01466014 C23.50319889 482.86787667 23.50611508 484.72112199 23.51656907 486.57431284 C23.57200606 497.15851792 22.94607983 506.04202354 19 516 C18.72505359 516.70514136 18.45010717 517.41028272 18.16682905 518.136792 C14.22731061 527.54145241 8.58781433 536.27479045 0 542 C0 363.14 0 184.28 0 0 Z " fill="#FAC530" transform="translate(1244,242)"/>
<path d="M0 0 C11.86566916 8.29960043 20.8484965 19.97807896 23.76171875 34.38671875 C25.87052022 50.08557411 22.90675022 64.70245637 13.18359375 77.52734375 C3.57947401 88.648843 -8.46163825 95.75189446 -23.296875 97.015625 C-38.78732568 97.74696224 -50.92542104 92.8784151 -62.7734375 82.875 C-71.85194766 74.46897207 -77.94993365 61.8745783 -78.81640625 49.52734375 C-78.87957031 48.65722656 -78.94273437 47.78710938 -79.0078125 46.890625 C-79.5778568 32.82340267 -74.30464476 19.43830942 -65.19140625 8.83984375 C-47.65213422 -9.52968968 -21.88865381 -13.21351762 0 0 Z " fill="#33AAAF" transform="translate(619.81640625,464.47265625)"/>
<path d="M0 0 C11.12768511 7.8737965 18.84912983 20.00299532 21.61328125 33.359375 C23.6772827 47.45296064 21.03901159 61.19543833 13 73 C7.85788448 79.68184502 2.33057529 84.83728046 -5 89 C-5.680625 89.38929688 -6.36125 89.77859375 -7.0625 90.1796875 C-17.70955225 95.87752406 -31.2102012 97.13772141 -42.9296875 94.125 C-50.5019516 91.60643513 -56.87088237 88.09155321 -63 83 C-64.06154297 82.14148438 -64.06154297 82.14148438 -65.14453125 81.265625 C-75.00352236 72.44343027 -80.30138853 58.51243928 -81.1640625 45.53125 C-81.61893478 31.14074519 -76.68217208 18.0741666 -67.3125 7.1875 C-48.50334703 -12.32453612 -22.63897532 -13.69907798 0 0 Z " fill="#1B64AD" transform="translate(800,466)"/>
<path d="M0 0 C8.99090369 8.22803913 15.50847392 20.74665955 16.05078125 32.96484375 C16.44564033 49.87826949 13.37689572 63.7957117 1.5 76.625 C-10.12822468 87.47454892 -24.32233292 91.35742051 -39.8203125 91.08984375 C-51.68756706 90.57331751 -62.35183837 84.44393516 -71.1875 76.8125 C-81.96508535 64.21823833 -86.75090487 51.09770405 -86.50390625 34.6640625 C-85.23320107 19.19597234 -77.29887423 6.71687474 -65.76953125 -3.28515625 C-44.85787934 -18.6920768 -19.67624644 -15.75607473 0 0 Z " fill="#1C4E7A" transform="translate(982.1875,470.1875)"/>
<path d="M0 0 C-0.99 0.33 -1.98 0.66 -3 1 C-3 34.66 -3 68.32 -3 103 C0.96 103 4.92 103 9 103 C9 103.33 9 103.66 9 104 C-7.31535057 104.83241585 -19.97417925 102.82075162 -33 92 C-34.06154297 91.14148438 -34.06154297 91.14148438 -35.14453125 90.265625 C-45.00352236 81.44343027 -50.30138853 67.51243928 -51.1640625 54.53125 C-51.61893478 40.14074519 -46.68217208 27.0741666 -37.3125 16.1875 C-27.2701688 5.76989484 -14.70260062 -0.98017337 0 0 Z " fill="#2983D6" transform="translate(770,457)"/>
<path d="M0 0 C16.19617346 4.85885204 26.76414698 12.11693565 35 27 C41.35694206 39.48272259 41.94403949 53.96835404 38.4375 67.5 C33.79780047 81.50078343 24.98094862 91.32683086 12 98 C3.14551084 102 3.14551084 102 0 102 C0 68.34 0 34.68 0 0 Z " fill="#BF3035" transform="translate(958,458)"/>
<path d="M0 0 C0 32.34 0 64.68 0 98 C-12.59550735 93.80149755 -22.04718854 86.51925903 -28.828125 74.85546875 C-34.9437515 62.34218443 -37.24020751 48.92320566 -33.3125 35.375 C-28.01628916 19.9811692 -19.65661653 8.75508162 -5 1 C-2 0 -2 0 0 0 Z " fill="#75BB4E" transform="translate(576,460)"/>
<path d="M0 0 C3.93775208 1.64073003 5.38734312 3.13241596 7 7 C7.65528607 10.79376145 7.86351149 14.4527415 5.94921875 17.8828125 C3.53231916 20.83442439 1.63915347 22.82302945 -2.20703125 23.23828125 C-9.22118281 23.43808467 -9.22118281 23.43808467 -13 21.3125 C-15.88940602 17.97162429 -16.81893412 15.41834936 -17.375 11.0625 C-16.89385565 7.13315451 -15.44484357 5.07351763 -13 2 C-8.74557709 -0.83628194 -4.99310819 -0.51845373 0 0 Z " fill="#E8F2FA" transform="translate(761,626)"/>
<path d="M0 0 C1.8975 -0.061875 3.795 -0.12375 5.75 -0.1875 C7.35101562 -0.23970703 7.35101562 -0.23970703 8.984375 -0.29296875 C12.3554844 0.0345354 13.69275725 0.54408051 16 3 C16.72508429 5.88320917 16.33638076 7.97257312 16 11 C15.01 11.66 14.02 12.32 13 13 C14.1094072 16.48670834 15.26337666 19.77484237 17 23 C14.75 22.9375 14.75 22.9375 12 22 C10.81564184 20.25980587 9.94464668 18.51607179 9.08984375 16.59375 C7.92429152 14.51080552 7.92429152 14.51080552 4 14 C4 16.97 4 19.94 4 23 C2.68 23 1.36 23 0 23 C0 15.41 0 7.82 0 0 Z " fill="#E9EEF3" transform="translate(918,626)"/>
<path d="M0 0 C3.88265681 0.72799815 5.46228253 1.50231129 8 4.5625 C8.71534153 7.70654141 8.71534153 10.41845859 8 13.5625 C5.4323911 16.65873426 3.88630606 17.41779697 -0.0625 18.0625 C-3.64818067 17.45217138 -4.76863693 16.37236461 -7 13.5625 C-8.44430855 10.67388291 -8.37688506 8.76602299 -8 5.5625 C-5.53959272 2.23371368 -4.10389613 0.76948052 0 0 Z " fill="#2E87D7" transform="translate(756,628.4375)"/>
<path d="M0 0 C0.77085937 -0.01417969 1.54171875 -0.02835938 2.3359375 -0.04296875 C4.84334888 0.20948393 6.45761902 0.93556533 8.625 2.1875 C8.295 3.1775 7.965 4.1675 7.625 5.1875 C7.109375 5.0225 6.59375 4.8575 6.0625 4.6875 C2.81657262 4.02166874 -0.07043832 3.94716824 -3.375 4.1875 C-5.55534419 5.77869807 -6.27957694 6.67109285 -6.7734375 9.34375 C-6.76570312 10.1171875 -6.75796875 10.890625 -6.75 11.6875 C-6.75773438 12.4609375 -6.76546875 13.234375 -6.7734375 14.03125 C-6.27595922 16.72348541 -5.59935134 17.61295917 -3.375 19.1875 C-1.32136394 19.5481631 -1.32136394 19.5481631 0.8125 19.375 C2.070625 19.313125 3.32875 19.25125 4.625 19.1875 C4.955 17.2075 5.285 15.2275 5.625 13.1875 C3.975 13.1875 2.325 13.1875 0.625 13.1875 C0.625 12.1975 0.625 11.2075 0.625 10.1875 C3.595 10.1875 6.565 10.1875 9.625 10.1875 C9.73324843 11.7901782 9.81070645 13.39495748 9.875 15 C9.92140625 15.89332031 9.9678125 16.78664063 10.015625 17.70703125 C9.625 20.1875 9.625 20.1875 7.9453125 21.97265625 C3.64164895 24.22592117 -0.67566485 24.11651719 -5.375 23.1875 C-8.36128874 21.36159774 -9.93330674 19.36155048 -11.375 16.1875 C-12.30184541 12.24840701 -12.34556422 8.89043136 -10.30859375 5.31640625 C-7.10205333 1.3249813 -4.9765072 0.04133312 0 0 Z " fill="#E9F0F7" transform="translate(789.375,625.8125)"/>
<path d="M0 0 C0.33 0 0.66 0 1 0 C1.00423194 1.02798108 1.00846388 2.05596216 1.01282406 3.11509418 C1.11591278 28.10170582 1.22464764 53.08828799 1.33933926 78.07484913 C1.39467133 90.15804379 1.44815331 102.24124141 1.49731445 114.32446289 C1.54015647 124.85337486 1.58643452 135.38226509 1.63687855 145.91114348 C1.66347932 151.48863047 1.68833243 157.06611315 1.70907402 162.64362526 C1.72863556 167.88923903 1.75277794 173.13481142 1.78049088 178.38038826 C1.78986386 180.3093516 1.79753825 182.23832403 1.80341911 184.16730118 C1.81167606 186.79373409 1.82595164 189.42006646 1.84178162 192.04646301 C1.84275972 192.81591415 1.84373783 193.58536528 1.84474558 194.37813312 C1.86922174 197.51968167 1.99889986 199.99669957 3 203 C2.5625 205.6875 2.5625 205.6875 2 208 C1.34 208 0.68 208 0 208 C0 139.36 0 70.72 0 0 Z " fill="#D93938" transform="translate(958,226)"/>
<path d="M0 0 C0.99 0 1.98 0 3 0 C3 3.3 3 6.6 3 10 C6.96 10 10.92 10 15 10 C15 6.7 15 3.4 15 0 C16.32 0 17.64 0 19 0 C19 7.59 19 15.18 19 23 C17.68 23 16.36 23 15 23 C15 19.7 15 16.4 15 13 C11.37 13 7.74 13 4 13 C4 16.3 4 19.6 4 23 C2.68 23 1.36 23 0 23 C0 15.41 0 7.82 0 0 Z " fill="#E3F3F4" transform="translate(635,626)"/>
<path d="M0 0 C4.95 0 9.9 0 15 0 C15 0.99 15 1.98 15 3 C11.37 3 7.74 3 4 3 C4 5.31 4 7.62 4 10 C7.3 10 10.6 10 14 10 C14 10.99 14 11.98 14 13 C10.7 13 7.4 13 4 13 C4 15.31 4 17.62 4 20 C7.96 20 11.92 20 16 20 C16 20.99 16 21.98 16 23 C10.72 23 5.44 23 0 23 C0 15.41 0 7.82 0 0 Z " fill="#EAF1F7" transform="translate(810,626)"/>
<path d="M0 0 C4.95 0 9.9 0 15 0 C15 0.99 15 1.98 15 3 C11.04 3 7.08 3 3 3 C3 5.31 3 7.62 3 10 C6.63 10 10.26 10 14 10 C14 10.99 14 11.98 14 13 C10.37 13 6.74 13 3 13 C3 15.31 3 17.62 3 20 C6.96 20 10.92 20 15 20 C15 20.99 15 21.98 15 23 C10.05 23 5.1 23 0 23 C0 15.41 0 7.82 0 0 Z " fill="#F5F7F9" transform="translate(892,626)"/>
<path d="M0 0 C0.99 0 1.98 0 3 0 C3 3.3 3 6.6 3 10 C6.96 10 10.92 10 15 10 C15 6.7 15 3.4 15 0 C15.99 0 16.98 0 18 0 C18 7.59 18 15.18 18 23 C17.01 23 16.02 23 15 23 C15 19.7 15 16.4 15 13 C11.04 13 7.08 13 3 13 C3 16.3 3 19.6 3 23 C2.01 23 1.02 23 0 23 C0 15.41 0 7.82 0 0 Z " fill="#F4F7F9" transform="translate(862,626)"/>
<path d="M0 0 C2.5625 2 2.5625 2 4 4 C0.25 5.125 0.25 5.125 -2 4 C-6.09493203 3.55465343 -6.09493203 3.55465343 -9.66796875 5.234375 C-11.34716702 7.46017447 -11.4026516 8.73483993 -11.375 11.5 C-11.38273438 12.2734375 -11.39046875 13.046875 -11.3984375 13.84375 C-10.90707295 16.50289934 -10.14991741 17.39770306 -8 19 C-4.16297089 19.33365471 -0.73645825 18.87916665 3 18 C3 18.99 3 19.98 3 21 C-1.2258785 23.81725233 -5.03624688 23.79958384 -10 23 C-13.25291709 20.4773296 -15.68783647 18.2297395 -16.2734375 14.046875 C-16.46329043 9.75327801 -16.4342668 6.90417036 -13.625 3.5 C-9.39114484 -0.53224301 -5.69382661 -0.77872939 0 0 Z " fill="#E9F5F6" transform="translate(621,626)"/>
<path d="M0 0 C5.61 0 11.22 0 17 0 C17 0.99 17 1.98 17 3 C14.69 3 12.38 3 10 3 C10 9.6 10 16.2 10 23 C8.68 23 7.36 23 6 23 C6 16.4 6 9.8 6 3 C4.02 3 2.04 3 0 3 C0 2.01 0 1.02 0 0 Z " fill="#E7EFF7" transform="translate(835,626)"/>
<path d="M0 0 C5.61 0 11.22 0 17 0 C17 0.99 17 1.98 17 3 C14.69 3 12.38 3 10 3 C10 9.6 10 16.2 10 23 C9.01 23 8.02 23 7 23 C7 16.4 7 9.8 7 3 C4.69 3 2.38 3 0 3 C0 2.01 0 1.02 0 0 Z " fill="#F5F9FC" transform="translate(719,626)"/>
<path d="M0 0 C5.61 0 11.22 0 17 0 C17 0.99 17 1.98 17 3 C14.69 3 12.38 3 10 3 C10 9.6 10 16.2 10 23 C9.01 23 8.02 23 7 23 C7 16.4 7 9.8 7 3 C4.69 3 2.38 3 0 3 C0 2.01 0 1.02 0 0 Z " fill="#F5F9FD" transform="translate(679,626)"/>
<path d="M0 0 C1.32 0 2.64 0 4 0 C4 7.59 4 15.18 4 23 C2.68 23 1.36 23 0 23 C0 15.41 0 7.82 0 0 Z " fill="#E5F5F6" transform="translate(665,626)"/>
<path d="M0 0 C2.97 0 5.94 0 9 0 C9.10824843 1.6026782 9.18570645 3.20745748 9.25 4.8125 C9.29640625 5.70582031 9.3428125 6.59914063 9.390625 7.51953125 C9 10 9 10 7.125 11.84375 C5 13 5 13 2.75 12.6875 C2.1725 12.460625 1.595 12.23375 1 12 C1.474375 11.62875 1.94875 11.2575 2.4375 10.875 C4.52205802 8.37353038 4.64621491 6.18406582 5 3 C3.35 3 1.7 3 0 3 C0 2.01 0 1.02 0 0 Z " fill="#DFE9F3" transform="translate(790,636)"/>
<path d="M0 0 C3.375 -0.125 3.375 -0.125 7 0 C7.66 0.66 8.32 1.32 9 2 C8.625 4.625 8.625 4.625 8 7 C5.36 7 2.72 7 0 7 C0 4.69 0 2.38 0 0 Z " fill="#285478" transform="translate(922,629)"/>
<path d="M0 0 C0.33 1.32 0.66 2.64 1 4 C-0.1446875 4.1546875 -0.1446875 4.1546875 -1.3125 4.3125 C-4.17059424 5.04364039 -5.15742885 5.76951913 -7 8 C-4.69 8.33 -2.38 8.66 0 9 C-0.33 10.32 -0.66 11.64 -1 13 C-1 12.01 -1 11.02 -1 10 C-4.3 10 -7.6 10 -11 10 C-11 7.69 -11 5.38 -11 3 C-7.37 3 -3.74 3 0 3 C0 2.01 0 1.02 0 0 Z " fill="#4887C0" transform="translate(825,626)"/>
<path d="M0 0 C0.33 0 0.66 0 1 0 C1 2.31 1 4.62 1 7 C6.445 6.01 6.445 6.01 12 5 C12 6.32 12 7.64 12 9 C10 10.75 10 10.75 8 12 C8 10.68 8 9.36 8 8 C5.36 8 2.72 8 0 8 C0 5.36 0 2.72 0 0 Z " fill="#C3CDDA" transform="translate(921,629)"/>
<path d="M0 0 C4.70588235 0.70588235 4.70588235 0.70588235 6 2 C6.04080783 3.99958364 6.04254356 6.00045254 6 8 C5.01 8 4.02 8 3 8 C2.566875 6.824375 2.566875 6.824375 2.125 5.625 C1.15087746 2.90328368 1.15087746 2.90328368 -1 1 C-0.67 0.67 -0.34 0.34 0 0 Z " fill="#F4F6F8" transform="translate(928,627)"/>
<path d="M0 0 C-0.804375 0.3403125 -0.804375 0.3403125 -1.625 0.6875 C-4.78500863 2.43382056 -7.2676983 4.6402849 -10 7 C-10 3 -10 3 -8.9375 1.25 C-6.01701466 -0.63418409 -3.38552395 -0.19163343 0 0 Z " fill="#2C72B6" transform="translate(793,629)"/>
<path d="M0 0 C0 3 0 3 -1.3125 4.60546875 C-1.869375 5.12753906 -2.42625 5.64960938 -3 6.1875 C-3.556875 6.71730469 -4.11375 7.24710937 -4.6875 7.79296875 C-5.120625 8.19128906 -5.55375 8.58960938 -6 9 C-6.99 8.67 -7.98 8.34 -9 8 C-6.03 5.36 -3.06 2.72 0 0 Z " fill="#328CDA" transform="translate(741,466)"/>
<path d="M0 0 C1.98 0.495 1.98 0.495 4 1 C4 1.99 4 2.98 4 4 C2.35 3.67 0.7 3.34 -1 3 C-0.67 2.01 -0.34 1.02 0 0 Z " fill="#E0F0F0" transform="translate(620,627)"/>
</svg>
