<?xml version="1.0" encoding="UTF-8"?>
<svg version="1.1" xmlns="http://www.w3.org/2000/svg" width="1536" height="1024">
<path d="M0 0 C506.88 0 1013.76 0 1536 0 C1536 337.92 1536 675.84 1536 1024 C1029.12 1024 522.24 1024 0 1024 C0 686.08 0 348.16 0 0 Z " fill="#51AB3E" transform="translate(0,0)"/>
<path d="M0 0 C506.88 0 1013.76 0 1536 0 C1536 337.92 1536 675.84 1536 1024 C1029.12 1024 522.24 1024 0 1024 C0 686.08 0 348.16 0 0 Z M206.94921875 150.203125 C193.42699644 166.06219738 187.65302336 184.69207036 187.74552441 205.33329391 C187.74231793 206.41277542 187.73911145 207.49225692 187.73580781 208.60444999 C187.72753781 212.20451502 187.73342165 215.80441237 187.73930359 219.40447998 C187.73628154 222.0185581 187.73239179 224.63263534 187.72771102 227.24671102 C187.71897254 232.92153265 187.71762851 238.59631818 187.72121429 244.27114487 C187.72653256 252.71016766 187.72041469 261.14915565 187.71213136 269.58817467 C187.69690473 285.53904924 187.69518493 301.48990792 187.69765439 317.44078824 C187.69948832 329.76016174 187.69772534 342.07953004 187.69342995 354.39890289 C187.69282754 356.16994691 187.69222634 357.94099093 187.69162634 359.71203496 C187.69071907 362.38096333 187.6898104 365.04989171 187.68889399 367.71882009 C187.68046638 392.52807609 187.67612743 417.33733014 187.68030071 442.14658737 C187.68045709 443.08152509 187.68061346 444.01646281 187.68077458 444.97973197 C187.68158034 449.7181669 187.68242611 454.45660182 187.68328788 459.19503674 C187.68345897 460.13607325 187.68363006 461.07710976 187.68380633 462.04666254 C187.68415299 463.94966633 187.68450152 465.85267012 187.68485192 467.75567392 C187.69020853 497.36316939 187.68227962 526.97063508 187.66381836 556.578125 C187.64309187 589.85733205 187.6323769 623.13652066 187.63639385 656.41573453 C187.63678918 659.9657677 187.63715073 663.51580087 187.63749123 667.06583405 C187.63758196 667.93991468 187.63767269 668.81399531 187.63776617 669.71456323 C187.63893104 682.89667898 187.63229223 696.07877606 187.62167931 709.26088715 C187.60961795 724.25719956 187.60807912 739.25347093 187.62046947 754.24978396 C187.6270887 762.6359765 187.62548867 771.02207083 187.61188096 779.40825548 C187.6026411 785.67890209 187.60917658 791.94944103 187.62172876 798.22007981 C187.62437797 800.75027161 187.62200213 803.28047493 187.61399289 805.81065544 C187.53346378 833.15616334 190.98676421 856.72080759 211 877 C228.80013193 894.55030552 249.82661106 898.48886314 273.92743301 898.37473011 C275.68881026 898.37756258 277.45018579 898.38170908 279.21155727 898.38703534 C284.02763254 898.39782779 288.8435225 898.39009848 293.65959086 898.3792013 C298.90822877 898.37065672 304.15684257 898.37959529 309.40547919 898.38626546 C318.59640808 898.39554635 327.78728223 898.39371489 336.97821045 898.38453293 C350.64533387 898.3709167 364.31241536 898.37450392 377.97954184 898.38149153 C400.97487935 898.39272224 423.97018754 898.3897672 446.96552277 898.37832069 C469.7387338 898.36700163 492.51193466 898.36103378 515.28514862 898.36250877 C516.71623728 898.36259418 518.14732594 898.36267906 519.57841459 898.36276341 C525.32953271 898.36311126 531.08065082 898.36349635 536.83176893 898.36392899 C552.90745733 898.36512351 568.98314565 898.36530554 585.05883408 898.36472607 C585.79082725 898.36470004 586.52282042 898.36467401 587.27699521 898.3646472 C610.59513792 898.36374877 633.91327745 898.35845257 657.23141861 898.3500185 C657.98753076 898.34974531 658.74364291 898.34947212 659.52266754 898.34919066 C671.80096284 898.34473714 684.07925804 898.3400223 696.35755323 898.33529177 C745.06291717 898.31654335 793.7682656 898.3101289 842.47363281 898.31567383 C845.55211267 898.31602081 848.63059252 898.31636643 851.70907238 898.31671212 C852.47021916 898.31679772 853.23136595 898.31688333 854.01557778 898.31697152 C862.44517039 898.31791767 870.874763 898.31882939 879.30435562 898.31969929 C880.06030617 898.31977821 880.81625671 898.31985712 881.59511485 898.31993843 C922.40738321 898.32416104 963.21964983 898.31885577 1004.03191733 898.310188 C1005.47074146 898.30988471 1006.90956558 898.30958181 1008.3483897 898.3092793 C1009.05963603 898.30912971 1009.77088236 898.30898011 1010.50368161 898.30882599 C1011.93859097 898.30852457 1013.37350033 898.30822358 1014.80840969 898.30792303 C1018.38311229 898.30717418 1021.9578149 898.30641818 1025.5325175 898.30564686 C1041.19994103 898.30229889 1056.86736329 898.30022911 1072.53478718 898.30158257 C1073.59352355 898.30167338 1073.59352355 898.30167338 1074.67364853 898.30176603 C1078.22728201 898.302078 1081.78091548 898.30241142 1085.33454895 898.30275235 C1111.01906021 898.30520331 1136.70355282 898.30113417 1162.38806084 898.28554235 C1175.97406429 898.27748526 1189.56004256 898.27489564 1203.14604753 898.2801847 C1212.21684907 898.28315789 1221.28762831 898.27887204 1230.35842452 898.26863613 C1235.52914054 898.26300095 1240.69980513 898.26051771 1245.87052158 898.26680271 C1250.57619644 898.27245358 1255.28177147 898.26887763 1259.98743634 898.25800393 C1261.67736768 898.25570041 1263.36730776 898.25672437 1265.05723386 898.26152648 C1289.42159117 898.32552613 1309.30417386 892.42680176 1327 875 C1339.72934733 862.29631668 1347.07316928 845.2172183 1347.14064401 827.27507776 C1347.13944624 826.25579756 1347.13824846 825.23651735 1347.13701439 824.18634987 C1347.14099213 822.54205636 1347.14099213 822.54205636 1347.14505023 820.86454481 C1347.15274253 817.17153894 1347.15330238 813.47856633 1347.15390015 809.78555298 C1347.15791481 807.11890549 1347.16231647 804.45226114 1347.1671797 801.78561532 C1347.17824399 795.21256721 1347.18390112 788.63952443 1347.18788858 782.06646865 C1347.19290156 774.1937075 1347.20362969 766.32095668 1347.21437032 758.44820164 C1347.23999023 739.41852422 1347.25503425 720.38884279 1347.26788078 701.35915308 C1347.27213645 695.05542165 1347.2767022 688.7516905 1347.2814641 682.44795942 C1347.30672533 648.92200257 1347.32877079 615.39604522 1347.34119225 581.87008095 C1347.34411351 574.10365421 1347.34708105 566.33722749 1347.35009766 558.57080078 C1347.35046857 557.60593218 1347.35083947 556.64106358 1347.35122162 555.64695653 C1347.3633748 524.36969121 1347.39431564 493.09248219 1347.43601918 461.81524331 C1347.4788233 429.65386029 1347.50543534 397.49250701 1347.51066696 365.33109473 C1347.51140738 360.78684485 1347.51231806 356.24259502 1347.51332474 351.69834518 C1347.51351535 350.80402144 1347.51370597 349.9096977 1347.51390236 348.98827324 C1347.5174132 334.60721218 1347.53769842 320.22622174 1347.56412137 305.8451866 C1347.59029096 291.3837434 1347.59798287 276.92238163 1347.58702008 262.46091814 C1347.58105221 253.87472485 1347.58890775 245.28880819 1347.61685092 236.70265687 C1347.6341558 230.95914185 1347.63310941 225.21581457 1347.61748323 219.47229535 C1347.60910583 216.20490604 1347.61116569 212.938145 1347.63009469 209.67078479 C1347.77006523 183.92971958 1342.37994877 165.04954918 1324.375 145.9375 C1316.2927453 138.03949123 1306.64923418 132.62596011 1296 129 C1295.25094981 128.73340263 1294.50189962 128.46680526 1293.73015093 128.19212918 C1285.06955644 125.45097919 1276.55160165 125.58342601 1267.57848454 125.62526989 C1265.81099679 125.62244088 1264.04351075 125.61829723 1262.27602878 125.61296466 C1257.41967803 125.60212118 1252.56350974 125.60993313 1247.70716566 125.6207987 C1242.42355893 125.62931327 1237.13997674 125.62041404 1231.85637134 125.61373454 C1222.59629228 125.60443681 1213.33626747 125.6062996 1204.07618904 125.61546707 C1190.30616021 125.62906198 1176.53617309 125.62550308 1162.76614124 125.61850847 C1139.59966964 125.60726789 1116.43322582 125.61024118 1093.26675606 125.62167931 C1070.31915616 125.63299254 1047.37156635 125.63896706 1024.42396355 125.63749123 C1022.98272527 125.63740582 1021.54148699 125.63732094 1020.10024871 125.63723659 C1014.30848538 125.63688875 1008.51672205 125.63650366 1002.72495872 125.63607101 C986.5345267 125.63487638 970.34409474 125.6346945 954.15366268 125.63527393 C953.04775026 125.63531297 953.04775026 125.63531297 951.91949618 125.6353528 C928.426722 125.63625147 904.93395096 125.64154951 881.44117832 125.6499815 C880.29823237 125.65039128 880.29823237 125.65039128 879.1321966 125.65080934 C866.75843958 125.65526301 854.38468267 125.65997778 842.01092576 125.66470823 C792.93786247 125.68345216 743.86481458 125.68987253 694.79174805 125.68432617 C691.69082113 125.68397919 688.58989422 125.68363357 685.48896731 125.68328788 C684.72227239 125.68320228 683.95557748 125.68311667 683.16564939 125.68302848 C674.67468801 125.68208234 666.18372662 125.68117062 657.69276524 125.68030071 C656.93131953 125.68022179 656.16987382 125.68014288 655.385354 125.68006157 C614.27512348 125.67583882 573.16489469 125.68114456 532.05466503 125.689812 C530.60527412 125.69011529 529.15588321 125.69041819 527.7064923 125.6907207 C526.99001926 125.69087029 526.27354622 125.69101989 525.53536188 125.69117401 C524.08990094 125.69147543 522.64444001 125.69177642 521.19897907 125.69207697 C517.59794935 125.69282583 513.99691962 125.69358182 510.3958899 125.69435314 C494.61171773 125.69770136 478.82754683 125.69977076 463.0433743 125.69841743 C461.97664642 125.69832662 461.97664642 125.69832662 460.88836849 125.69823397 C457.30785517 125.697922 453.72734186 125.69758858 450.14682855 125.69724765 C424.26665067 125.69479659 398.38649104 125.69886626 372.50631661 125.71445765 C358.81591493 125.72251501 345.12553824 125.72510418 331.43513506 125.7198153 C322.29456739 125.71684219 313.15402184 125.72112772 304.01345946 125.73136387 C298.80280813 125.73699934 293.59220785 125.73948186 288.3815561 125.73319729 C283.6395831 125.72754687 278.89770917 125.73112157 274.15574609 125.74199607 C272.45266319 125.74429981 270.74957161 125.74327515 269.04649392 125.73847352 C244.68564644 125.67498307 224.0019665 131.8836017 206.94921875 150.203125 Z " fill="#FCFCFC" transform="translate(0,0)"/>
<path d="M0 0 C72.09004583 -0.20165675 72.09004583 -0.20165675 102.25585938 -0.24414062 C109.15974995 -0.25392896 116.06363996 -0.26403108 122.9675293 -0.2746582 C123.83273671 -0.27597695 124.69794413 -0.27729569 125.58936995 -0.2786544 C139.53029199 -0.30035994 153.47111018 -0.33975621 167.41197079 -0.38576398 C181.73495358 -0.43263617 196.05788226 -0.46031806 210.38093859 -0.47044247 C219.20845299 -0.47727941 228.03567392 -0.49881827 236.86309791 -0.53958233 C242.92866939 -0.56615384 248.99409068 -0.57396867 255.05971604 -0.56750689 C258.55155739 -0.56432618 262.04288847 -0.56895975 265.53463745 -0.59602737 C292.45688644 -0.77389801 312.00026717 3.7249087 332.0625 22.625 C345.21940299 36.06836744 352.5102458 53.75735694 352.37473011 72.44844246 C352.37879084 73.55250453 352.38285156 74.65656659 352.38703534 75.79408509 C352.39695997 79.4837949 352.38556505 83.17312236 352.3742218 86.86282349 C352.37696311 89.53878414 352.38089182 92.21471928 352.38626546 94.89067352 C352.39554181 100.70361253 352.39371886 106.51646497 352.38453293 112.32940292 C352.37091078 120.97342498 352.37450586 129.61738078 352.38149153 138.26140768 C352.39341022 153.70034562 352.38833895 169.1392427 352.37621326 184.57817838 C352.36567509 198.08783667 352.36113802 211.59748104 352.36250877 225.1071434 C352.36263482 226.45157908 352.36263482 226.45157908 352.36276341 227.82317508 C352.36311566 231.46153131 352.36349967 235.09988754 352.36392899 238.73824376 C352.36789339 272.8632563 352.35517888 306.98824424 352.33440243 341.11324974 C352.31603006 371.43211411 352.31022102 401.75095488 352.31567383 432.06982422 C352.31602026 434.01688942 352.31636636 435.96395462 352.31671212 437.91101982 C352.31688311 438.87361194 352.31705411 439.83620407 352.31723029 440.82796566 C352.31808383 445.67351908 352.31890761 450.5190725 352.31969929 455.36462593 C352.31985637 456.32057852 352.32001345 457.27653111 352.32017529 458.26145196 C352.32416488 483.59670995 352.31869045 508.93196567 352.310188 534.26722229 C352.30928096 536.99312132 352.30837531 539.71902035 352.30747276 542.44491939 C352.30687165 544.25320311 352.30626303 546.06148683 352.30564686 547.86977055 C352.30142501 560.47765098 352.30084742 573.08552695 352.30275235 585.69340787 C352.30519473 601.93933456 352.30112814 618.18523733 352.28554235 634.43115748 C352.2774895 643.02319812 352.27489251 651.61519894 352.2801847 660.20724196 C352.28316037 665.94555858 352.27886409 671.68383998 352.26863613 677.42214818 C352.26300705 680.69206062 352.26160383 683.96187579 352.26680271 687.23179139 C352.27189778 690.75568953 352.26473686 694.27935778 352.25447559 697.80323982 C352.25887208 698.81606822 352.26326856 699.82889662 352.26779827 700.87241679 C352.15941671 720.35791869 343.40703471 737.30111239 330.25 751.3125 C314.26682604 766.50759759 294.28784897 772.35719255 272.69927979 772.24050903 C270.93205618 772.24307231 270.93205618 772.24307231 269.12913108 772.24568737 C265.89533194 772.24839038 262.66169723 772.24222303 259.42791748 772.23213124 C255.92707356 772.22343027 252.42623622 772.22642157 248.92538452 772.22793579 C242.87197338 772.22898047 236.81860562 772.2227477 230.76520538 772.21146011 C222.01319523 772.19515121 213.26120588 772.18999161 204.50918218 772.18748413 C190.30689084 772.18311545 176.10462258 772.16982888 161.90234375 772.15087891 C148.11263136 772.13249864 134.32292528 772.11837561 120.53320312 772.10986328 C119.67341323 772.10932729 118.81362333 772.10879129 117.9277792 772.10823905 C111.20286635 772.10407979 104.47795336 772.10016609 97.75304031 772.09632993 C64.83533902 772.07748956 31.91769555 772.03724658 -1 772 C-0.67 693.13 -0.34 614.26 0 533 C-32.01 533 -64.02 533 -97 533 C-97 532.01 -97 531.02 -97 530 C-64.99 530 -32.98 530 0 530 C0 477.53 0 425.06 0 371 C-9.57 371 -19.14 371 -29 371 C-35.36674364 369.60859245 -40.19090715 368.45673627 -46 366 C-46.91990723 365.61448975 -46.91990723 365.61448975 -47.85839844 365.22119141 C-56.86737482 361.35307793 -64.42820466 356.15752322 -72 350 C-73.48886719 348.82244141 -73.48886719 348.82244141 -75.0078125 347.62109375 C-88.42708947 335.86608742 -96.7478263 319.09821425 -101 302 C-101.33644531 300.73929687 -101.33644531 300.73929687 -101.6796875 299.453125 C-106.76147068 277.03758822 -101.47797907 254.49244264 -90 235 C-86.70818908 230.0067774 -82.95785327 225.47462367 -79 221 C-78.41863281 220.319375 -77.83726562 219.63875 -77.23828125 218.9375 C-62.88869768 203.3228398 -40.19001925 192.88062643 -19.03686523 191.90991211 C-16.98172246 191.86696883 -14.93052114 191.86334298 -12.875 191.875 C-11.84052734 191.86919922 -11.84052734 191.86919922 -10.78515625 191.86328125 C-6.97252387 191.87057118 -3.78074051 192.2438519 0 193 C0 129.31 0 65.62 0 0 Z " fill="#FDAE03" transform="translate(995,126)"/>
<path d="M0 0 C74.91 0 149.82 0 227 0 C227 63.69 227 127.38 227 193 C220.07 193 213.14 193 206 193 C180.11751931 197.0127877 157.82476002 208.35134678 141.69262695 229.50756836 C127.79395125 248.84378168 121.86379284 272.21410895 125.6953125 295.7421875 C128.4051983 309.97775898 133.52067272 323.17978146 142 335 C142.57105469 335.82886719 143.14210938 336.65773438 143.73046875 337.51171875 C157.06981716 355.62934121 177.0810324 364.02315211 198 370 C207.57 370.33 217.14 370.66 227 371 C227 423.47 227 475.94 227 530 C194.99 530 162.98 530 130 530 C130 530.99 130 531.98 130 533 C162.01 533 194.02 533 227 533 C227.02202655 563.30277161 227.04049796 593.60553776 227.05106533 623.908315 C227.05231611 627.48208957 227.05361042 631.05586413 227.05493164 634.62963867 C227.05532511 635.69689468 227.05532511 635.69689468 227.05572652 636.78571142 C227.0600833 648.32132168 227.06797089 659.85692699 227.0771528 671.39253431 C227.08648911 683.22037862 227.09205556 695.04822033 227.09408849 706.87606817 C227.09534006 713.52326311 227.09848474 720.1704488 227.10573006 726.8176403 C227.1124861 733.06621402 227.11461781 739.31477175 227.11310768 745.56334877 C227.1133842 747.86404889 227.11539177 750.1647495 227.11920547 752.46544647 C227.12413624 755.59176605 227.12300058 758.71802427 227.12025452 761.84434509 C227.12462378 763.22904437 227.12462378 763.22904437 227.12908131 764.64171737 C227.11412121 770.88587879 227.11412121 770.88587879 226 772 C223.6027007 772.09967234 221.23417312 772.13363108 218.83631134 772.12584114 C218.07400056 772.12729458 217.31168978 772.12874802 216.52627867 772.13024551 C213.93908987 772.13393209 211.35195901 772.13040688 208.76477051 772.12698364 C206.90433487 772.12813441 205.04389946 772.12972164 203.18346453 772.13171089 C198.04553859 772.13591027 192.90763108 772.13381079 187.76970506 772.13072467 C182.23863486 772.12847325 176.70756796 772.13194889 171.17649841 772.13470459 C160.33102637 772.13916406 149.48556123 772.13818504 138.64008892 772.13529195 C129.83005076 772.13303861 121.02001455 772.13272509 112.2099762 772.13381577 C110.33308064 772.13404561 110.33308064 772.13404561 108.418268 772.13428011 C105.87678826 772.13459982 103.33530852 772.13492403 100.79382879 772.1352527 C77.61248627 772.13802652 54.43114738 772.13514418 31.2498057 772.1299101 C10.06936714 772.12516418 -11.1110654 772.1255888 -32.29150391 772.13037109 C-56.06524301 772.13572093 -79.83897919 772.13783331 -103.61271906 772.13475883 C-106.1451381 772.13444026 -108.67755715 772.13412589 -111.2099762 772.13381577 C-112.45615423 772.13366149 -113.70233226 772.13350721 -114.98627326 772.13334826 C-123.79134099 772.13248284 -132.5964066 772.13394652 -141.401474 772.13629532 C-152.12384794 772.13909255 -162.84621456 772.1383567 -173.56858766 772.13301457 C-179.0450432 772.13037651 -184.52148651 772.12937426 -189.99794197 772.13266373 C-195.00274012 772.13562454 -200.00751459 772.1340375 -205.01231056 772.12868617 C-206.83126332 772.12756106 -208.65021804 772.12815522 -210.46916956 772.13056196 C-212.9249127 772.13356419 -215.38057268 772.13052331 -217.83631134 772.12584114 C-218.55695827 772.12818231 -219.27760521 772.13052347 -220.02008992 772.13293558 C-224.88584966 772.11415034 -224.88584966 772.11415034 -226 771 C-226.09803082 767.94072956 -226.12990898 764.90402112 -226.12025452 761.84434509 C-226.12153615 760.38523526 -226.12153615 760.38523526 -226.12284368 758.89664847 C-226.12450144 755.61068684 -226.11897229 752.32477535 -226.11352539 749.03881836 C-226.11324356 746.6938731 -226.11340118 744.34892775 -226.1139679 742.00398254 C-226.11425602 735.61580807 -226.10835693 729.2276522 -226.10139394 722.83948207 C-226.09579345 716.84648813 -226.09477212 710.8534942 -226.09374207 704.86049814 C-226.09155123 692.98699198 -226.08489031 681.11349267 -226.07543945 669.23999023 C-226.06626614 657.70320673 -226.05918491 646.16642508 -226.05493164 634.62963867 C-226.05466892 633.91899645 -226.05440619 633.20835422 -226.05413551 632.47617739 C-226.05283051 628.91123907 -226.05156679 625.34630075 -226.05032361 621.78136241 C-226.03995002 592.18756956 -226.0215112 562.5937873 -226 533 C-194.32 533 -162.64 533 -130 533 C-130 532.01 -130 531.02 -130 530 C-161.68 530 -193.36 530 -226 530 C-226 476.87 -226 423.74 -226 369 C-222.7 369.33 -219.4 369.66 -216 370 C-190.23855577 371.45962425 -165.49956325 368.57437125 -145.29296875 351.109375 C-144.15794922 350.06523438 -144.15794922 350.06523438 -143 349 C-142.17113281 348.26265625 -141.34226562 347.5253125 -140.48828125 346.765625 C-125.93379476 333.12497304 -119.18906262 315.83519324 -114 297 C-113.67 297 -113.34 297 -113 297 C-113 453.42 -113 609.84 -113 771 C-75.71 771 -38.42 771 0 771 C0 693.45 0 615.9 0 536 C1.32 537.32 2.64 538.64 4 540 C4.99 540 5.98 540 7 540 C6.484375 539.2575 5.96875 538.515 5.4375 537.75 C4 535 4 535 4.25 532.75 C5 531 5 531 6 530 C6.33340471 527.04195427 6.33340471 527.04195427 6 524 C2.83759418 521.89172945 1.49342531 521.66182535 -2.1875 521.375 C-3.08855469 521.30023437 -3.98960937 521.22546875 -4.91796875 521.1484375 C-5.60503906 521.09945312 -6.29210937 521.05046875 -7 521 C-7 520.67 -7 520.34 -7 520 C-4.69 520 -2.38 520 0 520 C0 471.16 0 422.32 0 372 C6.6 371.34 13.2 370.68 20 370 C37.08884688 366.27550773 51.9710556 360.98574102 65 349 C65.82886719 348.26265625 66.65773438 347.5253125 67.51171875 346.765625 C77.68875576 337.227575 84.16464235 325.99621819 89 313 C89.29519531 312.3296875 89.59039063 311.659375 89.89453125 310.96875 C97.60090145 293.05049023 96.00421335 268.80766941 89 251 C78.89532848 226.6858068 61.57115763 208.80036878 37.46484375 198.28125 C25.01435966 193.67723785 13.47413908 192.79259642 0 192 C0 128.64 0 65.28 0 0 Z " fill="#0A5FAB" transform="translate(768,126)"/>
<path d="M0 0 C74.58 0 149.16 0 226 0 C226 63.36 226 126.72 226 192 C231.61 192 237.22 192 243 192 C267.29115255 195.01654836 287.58588088 208.94958002 303.02734375 227.42578125 C317.24266408 246.6051817 322.3881337 267.4392442 321 291 C320.9278125 292.27875 320.855625 293.5575 320.78125 294.875 C318.72882533 315.02607861 308.04447255 332.93602124 294 347 C293.195625 347.81597656 292.39125 348.63195312 291.5625 349.47265625 C278.91394923 361.60111858 263.32770482 367.63160465 246.3125 370.8125 C245.66047607 370.93665283 245.00845215 371.06080566 244.33666992 371.1887207 C238.05151746 372.24233713 232.61442842 372 226 372 C226 420.84 226 469.68 226 520 C227.98 520.99 229.96 521.98 232 523 C233 524 233 524 233.1875 526.9375 C233 530 233 530 231 532 C231.3557806 535.37991574 232.35715799 538.04288438 234 541 C231.625 540.6875 231.625 540.6875 229 540 C228.34 539.01 227.68 538.02 227 537 C226.67 614.22 226.34 691.44 226 771 C188.71 771 151.42 771 113 771 C112.67 615.9 112.34 460.8 112 301 C110.02 306.94 108.04 312.88 106 319 C97.75955749 336.09128817 85.73838044 350.68003221 69 360 C68.11183594 360.52207031 67.22367188 361.04414063 66.30859375 361.58203125 C47.06517889 372.15386556 22.54851626 374.68586765 1.25 369.5 C-10.66440576 365.88609129 -21.58673945 360.15168955 -31 352 C-33.475 350.02 -33.475 350.02 -36 348 C-36.33 383.64 -36.66 419.28 -37 456 C-46.57 456 -56.14 456 -66 456 C-66.09282919 432.17263118 -66.16409753 408.34530634 -66.20724869 384.5177927 C-66.22782231 373.45279829 -66.25584288 362.38791872 -66.30175781 351.32299805 C-66.34178542 341.67219823 -66.36747055 332.02148164 -66.37635398 322.37060112 C-66.38154189 317.26651475 -66.39362551 312.16266635 -66.42292023 307.05865669 C-66.45034169 302.2413829 -66.45839176 297.42444206 -66.45243073 292.60709763 C-66.45351914 290.85169469 -66.46131219 289.09627905 -66.4768219 287.34094429 C-66.70829306 259.75961848 -57.35472465 237.19377953 -38.375 217 C-27.60123795 206.58466056 -15.16403543 199.72134514 -1 195 C-0.67 130.65 -0.34 66.3 0 0 Z " fill="#0884E0" transform="translate(542,126)"/>
<path d="M0 0 C37.62 0 75.24 0 114 0 C114 254.43 114 508.86 114 771 C76.38 771 38.76 771 0 771 C0 692.46 0 613.92 0 533 C-32.01 533 -64.02 533 -97 533 C-97 532.01 -97 531.02 -97 530 C-64.99 530 -32.98 530 0 530 C0 477.53 0 425.06 0 371 C-9.57 371 -19.14 371 -29 371 C-35.36674364 369.60859245 -40.19090715 368.45673627 -46 366 C-46.91990723 365.61448975 -46.91990723 365.61448975 -47.85839844 365.22119141 C-56.86737482 361.35307793 -64.42820466 356.15752322 -72 350 C-73.48886719 348.82244141 -73.48886719 348.82244141 -75.0078125 347.62109375 C-88.42708947 335.86608742 -96.7478263 319.09821425 -101 302 C-101.33644531 300.73929687 -101.33644531 300.73929687 -101.6796875 299.453125 C-106.76147068 277.03758822 -101.47797907 254.49244264 -90 235 C-86.70818908 230.0067774 -82.95785327 225.47462367 -79 221 C-78.41863281 220.319375 -77.83726562 219.63875 -77.23828125 218.9375 C-62.88869768 203.3228398 -40.19001925 192.88062643 -19.03686523 191.90991211 C-16.98172246 191.86696883 -14.93052114 191.86334298 -12.875 191.875 C-11.84052734 191.86919922 -11.84052734 191.86919922 -10.78515625 191.86328125 C-6.97252387 191.87057118 -3.78074051 192.2438519 0 193 C0 129.31 0 65.62 0 0 Z " fill="#E32125" transform="translate(995,126)"/>
<path d="M0 0 C0 254.43 0 508.86 0 771 C-80.10881801 771 -80.10881801 771 -100 753 C-100.76957031 752.32324219 -101.53914063 751.64648438 -102.33203125 750.94921875 C-117.42651138 736.8833233 -124.53340525 716.68853486 -125.27524066 696.38983905 C-125.4240711 689.62938669 -125.40046375 682.86942957 -125.38095093 676.10777283 C-125.38441154 673.48952892 -125.3891788 670.87128647 -125.39513266 668.25304705 C-125.4059127 662.58152902 -125.40567317 656.91009684 -125.39799118 651.23857498 C-125.38659877 642.80459621 -125.39246816 634.37068926 -125.4016161 625.93671091 C-125.417381 610.87005476 -125.41605711 595.80343688 -125.40737936 580.73677713 C-125.39982311 567.55206386 -125.39786706 554.3673646 -125.4014473 541.18264961 C-125.40167645 540.30698246 -125.40190561 539.43131531 -125.40214171 538.52911278 C-125.40307577 534.97421783 -125.40403097 531.41932288 -125.405021 527.86442794 C-125.41419108 494.53983237 -125.40588845 461.21526113 -125.38973031 427.89066931 C-125.37549301 398.30266951 -125.37676922 368.71470845 -125.39111328 339.12670898 C-125.40718682 305.86029849 -125.4135419 272.59390947 -125.40427649 239.32749563 C-125.40331438 235.77950864 -125.40237586 232.23152163 -125.4014473 228.68353462 C-125.40121006 227.80997257 -125.40097283 226.93641051 -125.40072841 226.03637688 C-125.3973201 212.86128594 -125.40129913 199.68621054 -125.40888596 186.51112175 C-125.41747168 171.52695192 -125.41530223 156.54282622 -125.39904372 141.55866187 C-125.39025054 133.17890658 -125.38963713 124.79924692 -125.40098225 116.41949416 C-125.40852554 110.1555782 -125.40031341 103.89177438 -125.38605852 97.62787218 C-125.38271479 95.09916505 -125.38439557 92.57044508 -125.39168589 90.04174625 C-125.46029115 64.26271542 -122.11499976 40.96723836 -103.49609375 21.375 C-73.9002103 -6.78508942 -41.10681448 0 0 0 Z " fill="#0D8740" transform="translate(313,126)"/>
<path d="M0 0 C37.29 0 74.58 0 113 0 C113 254.43 113 508.86 113 771 C75.71 771 38.42 771 0 771 C0 516.57 0 262.14 0 0 Z " fill="#FD5F02" transform="translate(1109,126)"/>
<path d="M0 0 C36.96 0 73.92 0 112 0 C112 64.35 112 128.7 112 195 C108.04 196.65 104.08 198.3 100 200 C77.91555676 210.91529953 61.45048688 228.14700444 52 251 C50.35309045 255.92148063 49.12293255 260.93472899 48 266 C47.8232779 266.73533809 47.64655581 267.47067617 47.46447849 268.22829723 C46.88235638 271.70201989 46.84665089 275.11360923 46.84178162 278.62458801 C46.83684364 279.38431732 46.83190566 280.14404663 46.82681805 280.92679805 C46.8114822 283.46787949 46.80309306 286.00893575 46.79467773 288.55004883 C46.78509613 290.3734255 46.77508589 292.19679997 46.76467896 294.02017212 C46.7376544 298.96805121 46.71663156 303.91593981 46.69667697 308.86385179 C46.67480233 314.03552879 46.64742086 319.20717655 46.62062073 324.37882996 C46.57071385 334.17116239 46.52576757 343.96351108 46.48259836 353.75587529 C46.43320887 364.90452879 46.37829708 376.05315294 46.32291877 387.20177805 C46.20912949 410.13449152 46.10247967 433.06723345 46 456 C55.57 456 65.14 456 75 456 C75 420.03 75 384.06 75 347 C83 353 83 353 85.51171875 354.90625 C93.66758582 360.88038602 102.43263395 364.81087798 112 368 C112 421.46 112 474.92 112 530 C143.68 530 175.36 530 208 530 C208 530.99 208 531.98 208 533 C176.32 533 144.64 533 112 533 C112.33 611.87 112.66 690.74 113 772 C18.29 772 -76.42 772 -174 772 C-174 771.67 -174 771.34 -174 771 C-116.58 771 -59.16 771 0 771 C0 516.57 0 262.14 0 0 Z " fill="#83C242" transform="translate(430,126)"/>
<path d="M0 0 C37.29 0 74.58 0 113 0 C113 63.69 113 127.38 113 193 C106.07 193 99.14 193 92 193 C66.11751931 197.0127877 43.82476002 208.35134678 27.69262695 229.50756836 C13.79395125 248.84378168 7.86379284 272.21410895 11.6953125 295.7421875 C14.4051983 309.97775898 19.52067272 323.17978146 28 335 C28.57105469 335.82886719 29.14210938 336.65773438 29.73046875 337.51171875 C43.06981716 355.62934121 63.0810324 364.02315211 84 370 C93.57 370.33 103.14 370.66 113 371 C113 423.47 113 475.94 113 530 C80.99 530 48.98 530 16 530 C16 530.99 16 531.98 16 533 C48.01 533 80.02 533 113 533 C113 611.54 113 690.08 113 771 C75.71 771 38.42 771 0 771 C0 667.05 0 563.1 0 456 C1.98 456 3.96 456 6 456 C6 451.71 6 447.42 6 443 C10.29 443 14.58 443 19 443 C19 447.29 19 451.58 19 456 C20.65 456 22.3 456 24 456 C24 446.43 24 436.86 24 427 C22.35 427 20.7 427 19 427 C19 430.96 19 434.92 19 439 C14.71 439 10.42 439 6 439 C6 435.04 6 431.08 6 427 C4.02 427 2.04 427 0 427 C0 286.09 0 145.18 0 0 Z " fill="#0C4879" transform="translate(882,126)"/>
<path d="M0 0 C0.33 0 0.66 0 1 0 C1 156.42 1 312.84 1 474 C112.87 474 224.74 474 340 474 C340 474.33 340 474.66 340 475 C282.56228821 475.02286377 225.12457687 475.04049892 167.68686143 475.05106533 C160.9135554 475.05231272 154.14024938 475.05360927 147.36694336 475.05493164 C146.69290006 475.0550624 146.01885677 475.05519316 145.32438792 475.05532788 C123.45706026 475.05959303 101.58973518 475.06710716 79.72240909 475.07629722 C56.62425679 475.08598698 33.52610572 475.09199361 10.42795128 475.09408849 C-3.41741149 475.09546405 -17.26276687 475.09981642 -31.10812736 475.10791647 C-40.58844389 475.11318196 -50.06875658 475.11480475 -59.54907446 475.11350138 C-65.02754929 475.11285769 -70.50601116 475.11387897 -75.98448372 475.11920547 C-80.99117052 475.12403804 -85.99783552 475.1243396 -91.00452328 475.12089889 C-92.82417955 475.12047306 -94.64383712 475.12177 -96.46349078 475.12488318 C-98.92019391 475.12884482 -101.37681637 475.12676487 -103.83351803 475.12304783 C-104.55445081 475.12567484 -105.27538359 475.12830186 -106.01816282 475.13100848 C-110.8858542 475.1141458 -110.8858542 475.1141458 -112 474 C-112.09803082 470.94072956 -112.12990898 467.90402112 -112.12025452 464.84434509 C-112.12110894 463.87160521 -112.12196337 462.89886532 -112.12284368 461.89664847 C-112.12450144 458.61068684 -112.11897229 455.32477535 -112.11352539 452.03881836 C-112.11324356 449.6938731 -112.11340118 447.34892775 -112.1139679 445.00398254 C-112.11425602 438.61580807 -112.10835693 432.2276522 -112.10139394 425.83948207 C-112.09579345 419.84648813 -112.09477212 413.8534942 -112.09374207 407.86049814 C-112.09155123 395.98699198 -112.08489031 384.11349267 -112.07543945 372.23999023 C-112.06626614 360.70320673 -112.05918491 349.16642508 -112.05493164 337.62963867 C-112.05466892 336.91899645 -112.05440619 336.20835422 -112.05413551 335.47617739 C-112.05283051 331.91123907 -112.05156679 328.34630075 -112.05032361 324.78136241 C-112.03995002 295.18756956 -112.0215112 265.5937873 -112 236 C-80.32 236 -48.64 236 -16 236 C-16 235.01 -16 234.02 -16 233 C-47.68 233 -79.36 233 -112 233 C-112 179.87 -112 126.74 -112 72 C-108.7 72.33 -105.4 72.66 -102 73 C-76.23855577 74.45962425 -51.49956325 71.57437125 -31.29296875 54.109375 C-30.53628906 53.41328125 -29.77960938 52.7171875 -29 52 C-28.17113281 51.26265625 -27.34226562 50.5253125 -26.48828125 49.765625 C-11.93379476 36.12497304 -5.18906262 18.83519324 0 0 Z " fill="#17ACB0" transform="translate(654,423)"/>
<path d="M0 0 C15.19004819 11.93933163 25.72394593 26.41050952 32.26171875 44.6328125 C32.67550781 45.78394531 33.08929687 46.93507813 33.515625 48.12109375 C40.39436757 70.81854744 37.21571701 94.9415714 26.38671875 115.7578125 C18.36530345 130.18912153 6.70318762 142.59177023 -7.73828125 150.6328125 C-8.62644531 151.15488281 -9.51460937 151.67695313 -10.4296875 152.21484375 C-29.67310236 162.78667806 -54.18976499 165.31868015 -75.48828125 160.1328125 C-87.40268701 156.51890379 -98.3250207 150.78450205 -107.73828125 142.6328125 C-110.21328125 140.6528125 -110.21328125 140.6528125 -112.73828125 138.6328125 C-113.06828125 174.2728125 -113.39828125 209.9128125 -113.73828125 246.6328125 C-123.30828125 246.6328125 -132.87828125 246.6328125 -142.73828125 246.6328125 C-142.83111044 222.80544368 -142.90237878 198.97811884 -142.94552994 175.1506052 C-142.96610356 164.08561079 -142.99412413 153.02073122 -143.04003906 141.95581055 C-143.08006667 132.30501073 -143.1057518 122.65429414 -143.11463523 113.00341362 C-143.11982314 107.89932725 -143.13190676 102.79547885 -143.16120148 97.69146919 C-143.18862294 92.8741954 -143.19667301 88.05725456 -143.19071198 83.23991013 C-143.19180039 81.48450719 -143.19959344 79.72909155 -143.21510315 77.97375679 C-143.44657431 50.39243098 -134.0930059 27.82659203 -115.11328125 7.6328125 C-83.48425502 -22.94397606 -35.28342107 -25.60543473 0 0 Z " fill="#FBFCFB" transform="translate(618.73828125,335.3671875)"/>
<path d="M0 0 C9.57 0 19.14 0 29 0 C29.09281424 23.32310359 29.16408993 46.64616229 29.20724869 69.96941376 C29.2278256 80.80014861 29.25585254 91.63076621 29.30175781 102.46142578 C29.34177527 111.9074911 29.36746817 121.35347145 29.37635398 130.7996192 C29.38154359 135.79580557 29.39363826 140.79174898 29.42292023 145.78785706 C29.45032555 150.50253266 29.45839493 155.21686813 29.45243073 159.93161583 C29.45351984 161.65035038 29.46132274 163.36909782 29.4768219 165.08776283 C29.6861882 189.52884737 22.07881359 212.40504433 4.8203125 230.1796875 C-14.12045379 249.12045379 -35.24162097 257.17964609 -61.875 257.5 C-73.08777247 257.46895811 -82.65922959 256.3314998 -93 252 C-93.61472168 251.74299316 -94.22944336 251.48598633 -94.86279297 251.22119141 C-103.8692791 247.35312763 -111.43004642 242.15602547 -119 236 C-120.48886719 234.82244141 -120.48886719 234.82244141 -122.0078125 233.62109375 C-135.42708947 221.86608742 -143.7478263 205.09821425 -148 188 C-148.22429688 187.15953125 -148.44859375 186.3190625 -148.6796875 185.453125 C-153.76147068 163.03758822 -148.47797907 140.49244264 -137 121 C-133.70818908 116.0067774 -129.95785327 111.47462367 -126 107 C-125.41863281 106.319375 -124.83726562 105.63875 -124.23828125 104.9375 C-109.2170264 88.59195316 -86.30894227 79.02703883 -64.37890625 77.796875 C-42.10560059 77.52330318 -23.12861421 83.54448771 -6 98 C-4.02 99.65 -2.04 101.3 0 103 C0 69.01 0 35.02 0 0 Z " fill="#FBFBFB" transform="translate(1042,240)"/>
<path d="M0 0 C18.02992671 15.3254377 32.80505391 36.76229544 34.89013672 60.97363281 C35.20340663 67.41963514 35.03562626 73.81866952 34.65625 80.2578125 C34.5840625 81.5365625 34.511875 82.8153125 34.4375 84.1328125 C32.38507533 104.28389111 21.70072255 122.19383374 7.65625 136.2578125 C6.851875 137.07378906 6.0475 137.88976562 5.21875 138.73046875 C-5.26405817 148.7822404 -17.49231199 154.45198608 -31.34375 158.2578125 C-31.98932861 158.44327637 -32.63490723 158.62874023 -33.30004883 158.81982422 C-55.63324502 164.60236561 -79.77969786 160.51242193 -99.55419922 149.31787109 C-104.09241581 146.62961237 -108.25964263 143.58724785 -112.34375 140.2578125 C-113.19453125 139.57074219 -114.0453125 138.88367188 -114.921875 138.17578125 C-131.62583423 123.95692025 -141.880743 102.99156872 -144.34375 81.2578125 C-145.1497024 68.30670225 -144.31389375 56.60937084 -140.34375 44.2578125 C-139.910625 42.80375 -139.910625 42.80375 -139.46875 41.3203125 C-131.66909584 17.36423187 -114.04651449 0.77618278 -92.34375 -10.7421875 C-91.17199219 -11.37833984 -91.17199219 -11.37833984 -89.9765625 -12.02734375 C-61.65338967 -26.08205027 -24.23546108 -18.61458607 0 0 Z " fill="#FAFBFC" transform="translate(828.34375,336.7421875)"/>
<path d="M0 0 C37.29 0 74.58 0 113 0 C113 89.1 113 178.2 113 270 C111.30756466 266.61512932 110.56312401 264.35702542 109.8125 260.75 C104.27329718 238.20928356 90.08481708 218.22774952 70.27124023 206.02148438 C68.52679134 204.98992612 66.76938534 203.98809176 65 203 C63.97390625 202.42378906 62.9478125 201.84757813 61.890625 201.25390625 C45.38373873 192.85382834 23.96836289 189.84311387 5.91015625 194.5625 C4 195 4 195 0 195 C0 130.65 0 66.3 0 0 Z " fill="#16ACAF" transform="translate(542,126)"/>
<path d="M0 0 C13.67536338 9.74338729 22.80254071 23.35833016 26.95703125 39.5859375 C28.56740675 50.09100383 28.17813656 61.36205218 24.375 71.3125 C24.0965625 72.06402344 23.818125 72.81554687 23.53125 73.58984375 C16.7764864 90.15648379 5.55953992 101.20487205 -10.7578125 108.2109375 C-27.00097302 114.45149781 -42.66009771 113.93233248 -58.58984375 107.02734375 C-65.57803987 103.5087429 -71.10218684 98.80684505 -76.625 93.3125 C-77.25148438 92.72082031 -77.87796875 92.12914062 -78.5234375 91.51953125 C-86.44813272 83.39761511 -92.84000413 70.67787492 -93.625 59.3125 C-93.70492188 58.18585938 -93.78484375 57.05921875 -93.8671875 55.8984375 C-94.49360029 38.10094475 -88.46209591 22.50795118 -76.625 9.3125 C-55.40316437 -12.22607944 -25.75402426 -16.09056737 0 0 Z " fill="#16ACB0" transform="translate(598.625,356.6875)"/>
<path d="M0 0 C15.57360038 -0.82282755 30.02514456 3.17351241 42.08984375 13.3125 C42.71890625 13.78300781 43.34796875 14.25351562 43.99609375 14.73828125 C55.41465756 23.62773334 63.03951145 39.19740245 65.08984375 53.3125 C66.53125483 70.55604742 62.3965413 86.39755611 51.80078125 100.3203125 C42.23380061 111.46660423 27.97429949 120.63274951 13.08984375 122.3125 C-4.93210526 123.55233924 -20.75346058 119.19112864 -34.6015625 107.42578125 C-45.36605945 97.57198625 -54.16238123 83.91185308 -55.04931641 68.96777344 C-55.46581753 57.90895053 -55.83416437 47.48264762 -50.91015625 37.3125 C-50.48605469 36.38566406 -50.06195312 35.45882812 -49.625 34.50390625 C-46.10532847 27.43515088 -41.45663272 21.88858399 -35.91015625 16.3125 C-35.39195312 15.75949219 -34.87375 15.20648438 -34.33984375 14.63671875 C-25.43282255 5.98618246 -12.11663268 0.96836225 0 0 Z " fill="#0A5FAB" transform="translate(768.91015625,346.6875)"/>
<path d="M0 0 C3.54099526 2.81089315 6.79894702 5.80992833 10 9 C10.63808594 9.61488281 11.27617188 10.22976563 11.93359375 10.86328125 C23.17040938 22.55057055 27.50894913 38.21070071 27.34960938 54.01904297 C26.87933254 70.03705342 20.07105889 84.13180442 8.81640625 95.375 C-3.57605674 106.92525677 -19.03842337 112.64611197 -35.94140625 112.2421875 C-51.46220142 111.51120111 -66.06564008 103.81305958 -77 93 C-86.9031829 81.70176003 -93.45852297 67.81062862 -93.25 52.6875 C-93.24033203 51.94185791 -93.23066406 51.19621582 -93.22070312 50.42797852 C-92.85030583 33.31377156 -86.1701482 18.4803488 -74.20703125 6.15234375 C-53.89041082 -12.90757851 -23.2050695 -15.97784174 0 0 Z " fill="#0E4979" transform="translate(1015,357)"/>
<path d="M0 0 C0.33 39.93 0.66 79.86 1 121 C5.29 121 9.58 121 14 121 C14 121.33 14 121.66 14 122 C-5.41812096 122.7967922 -21.44536288 118.32328034 -36 105 C-46.66154203 94.99633897 -53.68719715 80.65567052 -54.23828125 66.0234375 C-54.4401074 55.72939464 -54.58006815 46.45976693 -50 37 C-49.57589844 36.07316406 -49.15179687 35.14632812 -48.71484375 34.19140625 C-45.19517222 27.12265088 -40.54647647 21.57608399 -35 16 C-34.48179687 15.44699219 -33.96359375 14.89398438 -33.4296875 14.32421875 C-25.2448533 6.37507349 -11.38742882 0 0 0 Z " fill="#0983E0" transform="translate(768,347)"/>
<path d="M0 0 C12.78403338 2.84089631 20.79435115 7.82593142 30 17 C30.63808594 17.61488281 31.27617188 18.22976563 31.93359375 18.86328125 C43.17040938 30.55057055 47.50894913 46.21070071 47.34960938 62.01904297 C46.87933254 78.03705342 40.07105889 92.13180442 28.81640625 103.375 C21.22384096 110.45156571 10.82958928 118 0 118 C0 79.06 0 40.12 0 0 Z " fill="#E42226" transform="translate(995,349)"/>
<path d="M0 0 C0.66 0.33 1.32 0.66 2 1 C1.67 37.63 1.34 74.26 1 112 C-7.60809357 107.69595322 -12.47797248 104.48892078 -19 98 C-19.62777344 97.40703125 -20.25554688 96.8140625 -20.90234375 96.203125 C-28.82525705 88.08258801 -35.21518223 75.36279642 -36 64 C-36.07992188 62.87335938 -36.15984375 61.74671875 -36.2421875 60.5859375 C-36.86860029 42.78844475 -30.83709591 27.19545118 -19 14 C-13.46400089 8.38137403 -7.23684441 3.26957621 0 0 Z " fill="#84C243" transform="translate(541,352)"/>
<path d="M0 0 C3.3 0 6.6 0 10 0 C10.33 8.25 10.66 16.5 11 25 C13.64 23.68 16.28 22.36 19 21 C26.4681781 19.70777348 33.26515572 20.59548341 39.84375 24.38671875 C45.65410215 28.73395686 49.33340562 34.97551128 51 42 C51.91724994 50.12421377 49.23651959 56.51366063 44.875 63.3125 C38.9910174 68.81274461 33.3445916 71.29671117 25.25 71.5 C20.4843092 71.30937237 17.01806134 70.74919986 13 68 C12.01 67.34 11.02 66.68 10 66 C10 67.32 10 68.64 10 70 C6.7 70 3.4 70 0 70 C0 46.9 0 23.8 0 0 Z " fill="#F3F8FB" transform="translate(657,698)"/>
<path d="M0 0 C1.24720186 0.80609097 2.48436044 1.62951143 3.6875 2.5 C3.6875 1.18 3.6875 -0.14 3.6875 -1.5 C6.9875 -1.5 10.2875 -1.5 13.6875 -1.5 C13.6875 22.26 13.6875 46.02 13.6875 70.5 C10.3875 70.5 7.0875 70.5 3.6875 70.5 C3.3575 61.59 3.0275 52.68 2.6875 43.5 C1.0375 44.49 -0.6125 45.48 -2.3125 46.5 C-8.16824439 48.52332631 -15.87057648 48.70749448 -21.6953125 46.6640625 C-27.65524022 43.18159493 -32.56374752 37.84543952 -35.75 31.75 C-37.08921942 24.01228781 -37.43375276 16.41306915 -33.3125 9.5 C-25.31243108 -1.65353524 -13.04895181 -7.22426197 0 0 Z " fill="#F2F6F9" transform="translate(865.3125,721.5)"/>
<path d="M0 0 C5.55697954 3.29474361 9.70194036 7.73783944 11.875 13.828125 C13.31243089 20.27033349 12.896016 26.94078172 12.8125 33.5 C12.80244978 34.86067049 12.79332754 36.22134817 12.78515625 37.58203125 C12.7617082 40.88820647 12.72888856 44.1940088 12.6875 47.5 C9.3875 47.5 6.0875 47.5 2.6875 47.5 C2.6781543 46.59233887 2.66880859 45.68467773 2.65917969 44.74951172 C2.61499516 41.36073186 2.55330889 37.97318774 2.47998047 34.58496094 C2.4518689 33.12251295 2.43060569 31.6599158 2.41650391 30.19726562 C2.39493581 28.08646831 2.34822344 25.97744571 2.296875 23.8671875 C2.27592773 22.59987793 2.25498047 21.33256836 2.23339844 20.02685547 C1.59814313 15.92269704 0.25254764 13.72755731 -2.3125 10.5 C-6.26380568 7.80059315 -10.68806464 7.65919357 -15.3125 8.5 C-18.33659364 10.77127334 -18.33659364 10.77127334 -20.3125 13.5 C-20.6425 13.83 -20.9725 14.16 -21.3125 14.5 C-21.47238491 17.01880517 -21.57184225 19.51342266 -21.62890625 22.03515625 C-21.64968735 22.78840683 -21.67046844 23.54165741 -21.69187927 24.31773376 C-21.75745425 26.7325599 -21.81629621 29.14749798 -21.875 31.5625 C-21.9181777 33.19597529 -21.96179173 34.8294391 -22.00585938 36.46289062 C-22.11314362 40.47514464 -22.21438821 44.48751164 -22.3125 48.5 C-25.6125 48.5 -28.9125 48.5 -32.3125 48.5 C-32.41204745 43.80442353 -32.48428467 39.10947337 -32.53222656 34.41308594 C-32.55223053 32.81857592 -32.57944301 31.22413822 -32.61425781 29.62988281 C-32.99102871 11.92165072 -32.99102871 11.92165072 -26.56640625 4.4765625 C-26.00824219 4.03054688 -25.45007813 3.58453125 -24.875 3.125 C-24.31941406 2.66351562 -23.76382813 2.20203125 -23.19140625 1.7265625 C-16.45614323 -2.67026201 -7.38210673 -3.25850805 0 0 Z " fill="#EFF4F8" transform="translate(806.3125,720.5)"/>
<path d="M0 0 C3.3 0 6.6 0 10 0 C10.01458252 0.87736816 10.02916504 1.75473633 10.04418945 2.65869141 C10.1054968 5.93549321 10.17969333 9.21148944 10.26245117 12.48779297 C10.29556291 13.9017449 10.32363716 15.31582464 10.34643555 16.72998047 C10.38023775 18.77105823 10.43255964 20.81097928 10.48828125 22.8515625 C10.51446533 24.07697754 10.54064941 25.30239258 10.56762695 26.56494141 C11.13608633 31.08116017 12.64507988 34.43663063 15.625 37.875 C19.36361788 39.64592426 22.94132172 39.53632534 27 39 C29.85267734 37.78609475 31.38414465 36.91982998 33.10302734 34.35253906 C34.33164702 31.13017128 34.35617613 28.0136185 34.4140625 24.609375 C34.43342865 23.90476135 34.4527948 23.20014771 34.4727478 22.47418213 C34.53232735 20.23290961 34.57884123 17.99158511 34.625 15.75 C34.66319979 14.22654062 34.70225269 12.70310238 34.7421875 11.1796875 C34.83801018 7.45331894 34.92212107 3.72679165 35 0 C38.3 0 41.6 0 45 0 C45.09958121 4.55315922 45.17179985 9.10567152 45.21972656 13.65966797 C45.23972503 15.20567887 45.26693331 16.75161527 45.30175781 18.29736328 C45.67862163 35.4668356 45.67862163 35.4668356 39.2890625 43.0234375 C33.07055367 48.07415125 27.75999139 49.49344621 19.74609375 49.30859375 C12.95986494 48.54598767 8.63381589 45.17411451 4.32421875 40.07421875 C0.78211853 34.52597327 -0.3748455 30.11258819 -0.29296875 23.53515625 C-0.28872391 22.85698349 -0.28447906 22.17881073 -0.28010559 21.48008728 C-0.26347941 19.34046598 -0.22586174 17.20183053 -0.1875 15.0625 C-0.17243222 13.60092518 -0.1587475 12.13933542 -0.14648438 10.67773438 C-0.11362977 7.11817603 -0.06196241 3.55918444 0 0 Z " fill="#F1F7FC" transform="translate(717,720)"/>
<path d="M0 0 C4.63820551 4.40034882 6.15283898 8.3520254 6.75 14.5625 C6.36259604 19.21134756 5.13770218 22.51405045 2.4375 26.3125 C-2.76045916 30.44965117 -6.92056438 31.96580514 -13.5625 31.3125 C-18.19876867 29.46145244 -21.58833066 26.93382392 -24.0625 22.5625 C-25.90886062 18.12957113 -26.6315721 14.03556479 -25.5625 9.3125 C-20.38508902 -1.37634847 -11.28978906 -5.34779482 0 0 Z " fill="#1063AD" transform="translate(863.5625,729.6875)"/>
<path d="M0 0 C4.47845619 1.9993108 7.06028893 4.60226983 9.3046875 9.015625 C11.15515603 14.29673743 10.61491375 19.24916555 8.375 24.3125 C6.1579999 28.1425588 4.15922579 30.21747466 0 32 C-5.14613705 32.89151388 -9.8267437 33.22331094 -14.484375 30.6015625 C-18.04480572 27.62587405 -21.0881799 24.67307802 -22 20 C-22.51678848 13.48846515 -21.8023221 9.57255099 -17.6640625 4.296875 C-12.57714055 -1.01337523 -7.01912209 -1.12266904 0 0 Z " fill="#0B85E0" transform="translate(688,728)"/>
<path d="M0 0 C5.36787898 1.88869816 8.45991584 4.91983169 11 10 C11.42866527 15.46548215 10.63451736 19.1851924 8 24 C2.954572 28.67625034 -0.42425949 29.40957045 -7.1640625 29.34765625 C-11.45955952 28.82107328 -14.08768007 27.13902747 -17 24 C-19.82643943 19.69889652 -20.01433602 13.9589761 -19 9 C-13.94005584 0.91465842 -9.22091615 -0.78023137 0 0 Z " fill="#EAF4FB" transform="translate(757,553)"/>
<path d="M0 0 C57.09 0 114.18 0 173 0 C173 0.99 173 1.98 173 3 C115.91 3 58.82 3 0 3 C0 2.01 0 1.02 0 0 Z " fill="#E9DFE2" transform="translate(898,656)"/>
<path d="M0 0 C53.46 0 106.92 0 162 0 C162 0.99 162 1.98 162 3 C108.54 3 55.08 3 0 3 C0 2.01 0 1.02 0 0 Z " fill="#DFF5EA" transform="translate(476,656)"/>
<path d="M0 0 C14.84615385 0 14.84615385 0 19 3 C20.54586876 6.09173752 20.29359521 8.59429552 20 12 C18.70644173 13.37195574 17.37701298 14.71182656 16 16 C16 18.94755778 17.62172159 21.1307492 19.0625 23.625 C21 27 21 27 21 29 C18.72265625 29.33984375 18.72265625 29.33984375 16 29 C14.12109375 26.62890625 14.12109375 26.62890625 12.4375 23.5625 C10.83308609 20.53649498 10.83308609 20.53649498 9 18 C7.68 17.67 6.36 17.34 5 17 C5 20.96 5 24.92 5 29 C3.35 29 1.7 29 0 29 C0 19.43 0 9.86 0 0 Z " fill="#EFF3F6" transform="translate(952,553)"/>
<path d="M0 0 C3.1875 1.5 3.1875 1.5 5 3 C4.34 4.32 3.68 5.64 3 7 C2.154375 6.649375 1.30875 6.29875 0.4375 5.9375 C-3.58882931 4.83941019 -5.98348799 4.88430222 -10 6 C-13.15850062 8.75356464 -13.90662809 10.34639662 -14.5 14.5 C-13.9231981 18.53761333 -12.85349783 20.14650217 -10 23 C-7.59454362 24.20272819 -6.05003047 24.10071472 -3.375 24.0625 C-2.55773437 24.05347656 -1.74046875 24.04445313 -0.8984375 24.03515625 C-0.27195312 24.02355469 0.35453125 24.01195312 1 24 C1 21.69 1 19.38 1 17 C-0.98 17 -2.96 17 -5 17 C-5 15.68 -5 14.36 -5 13 C-1.37 13 2.26 13 6 13 C6 17.62 6 22.24 6 27 C0.34679054 29.82660473 -4.77545794 29.61161545 -11 29 C-15.29653507 27.14804523 -16.55211942 25.77632634 -18.875 21.75 C-20.57718902 16.0760366 -21.10058392 11.57099537 -18.3125 6.1875 C-13.37850209 -0.61341604 -8.01441225 -0.93721762 0 0 Z " fill="#EDF3F8" transform="translate(799,553)"/>
<path d="M0 0 C6.27 0 12.54 0 19 0 C19 1.65 19 3.3 19 5 C14.38 5 9.76 5 5 5 C5 7.31 5 9.62 5 12 C9.29 12 13.58 12 18 12 C18 13.32 18 14.64 18 16 C13.71 16 9.42 16 5 16 C5 18.64 5 21.28 5 24 C9.62 24 14.24 24 19 24 C19 25.65 19 27.3 19 29 C12.73 29 6.46 29 0 29 C0 19.43 0 9.86 0 0 Z " fill="#E3ECF5" transform="translate(819,553)"/>
<path d="M0 0 C6.27 0 12.54 0 19 0 C19 1.65 19 3.3 19 5 C14.38 5 9.76 5 5 5 C5 7.31 5 9.62 5 12 C9.29 12 13.58 12 18 12 C18 13.32 18 14.64 18 16 C13.71 16 9.42 16 5 16 C5 18.64 5 21.28 5 24 C9.62 24 14.24 24 19 24 C19 25.65 19 27.3 19 29 C12.73 29 6.46 29 0 29 C0 19.43 0 9.86 0 0 Z " fill="#F6F7F9" transform="translate(920,553)"/>
<path d="M0 0 C5.53846154 3.07692308 5.53846154 3.07692308 7 6 C7.5811138 13.08958838 7.5811138 13.08958838 5.125 16.9375 C2.26777694 19.71068709 0.57699254 20.20503898 -3.3125 20.375 C-6.82604325 20.30699594 -7.94737005 20.03222242 -11.0625 18.125 C-13.78240438 13.73805744 -14.15390567 10.02773185 -13 5 C-9.92485929 0.12741789 -5.47380424 -0.87971854 0 0 Z " fill="#E2EFF9" transform="translate(693,647)"/>
<path d="M0 0 C1.65 0 3.3 0 5 0 C5 3.96 5 7.92 5 12 C9.62 12 14.24 12 19 12 C19 8.37 19 4.74 19 1 C20.32 1 21.64 1 23 1 C23 10.24 23 19.48 23 29 C21.68 29 20.36 29 19 29 C19 24.71 19 20.42 19 16 C14.38 16 9.76 16 5 16 C5 20.29 5 24.58 5 29 C3.35 29 1.7 29 0 29 C0 19.43 0 9.86 0 0 Z " fill="#F0F8F9" transform="translate(601,553)"/>
<path d="M0 0 C1.65 0 3.3 0 5 0 C5 9.57 5 19.14 5 29 C3.35 29 1.7 29 0 29 C0 24.71 0 20.42 0 16 C-4.62 16 -9.24 16 -14 16 C-14 19.96 -14 23.92 -14 28 C-15.32 28 -16.64 28 -18 28 C-18 19.09 -18 10.18 -18 1 C-16.68 1 -15.36 1 -14 1 C-14 4.63 -14 8.26 -14 12 C-9.38 12 -4.76 12 0 12 C0 8.04 0 4.08 0 0 Z " fill="#F3F5F8" transform="translate(901,553)"/>
<path d="M0 0 C2.69990662 1.79993774 4.5418865 3.083773 6 6 C6.52862376 10.41097527 6.45691857 13.98231774 4.625 18.0625 C1.13872414 20.63570361 -1.39316747 20.6620383 -5.6484375 20.3984375 C-8 20 -8 20 -10.625 18.6875 C-12.90028767 14.24034683 -12.95002385 9.86527368 -12 5 C-9.21831665 0.54168559 -5.09049206 -0.97477508 0 0 Z " fill="#0C85DF" transform="translate(756,557)"/>
<path d="M0 0 C11.0438247 -0.60680356 11.0438247 -0.60680356 15.25 2.0625 C17.44810144 5.75217028 17.60485655 7.76600414 17 12 C15.30330345 15.81756724 13.85619032 17.48603796 10 19 C7.421875 19.1953125 7.421875 19.1953125 4.75 19.125 C3.1825 19.08375 1.615 19.0425 0 19 C0 12.73 0 6.46 0 0 Z " fill="#FCFCFD" transform="translate(805,648)"/>
<path d="M0 0 C0.78375 0.495 1.5675 0.99 2.375 1.5 C2.375 2.16 2.375 2.82 2.375 3.5 C0.625 4.625 0.625 4.625 -1.625 5.5 C-2.2334375 5.1803125 -2.841875 4.860625 -3.46875 4.53125 C-6.09274942 3.27629375 -7.52668505 3.45613015 -10.375 3.875 C-11.57382812 4.04128906 -11.57382812 4.04128906 -12.796875 4.2109375 C-13.40015625 4.30632813 -14.0034375 4.40171875 -14.625 4.5 C-17.12478621 9.05843368 -16.99800319 13.57930402 -15.625 18.5 C-14.04013104 20.40184275 -12.84111543 21.39194229 -10.625 22.5 C-6.40353434 22.78143104 -3.45208507 22.30098121 0.375 20.5 C1.035 21.82 1.695 23.14 2.375 24.5 C-1.80214251 27.95694552 -5.76611994 28.0054951 -10.96484375 27.8515625 C-15.7760833 27.21571586 -18.33716629 24.91661708 -21.5 21.4375 C-23.27130636 16.81242228 -23.27042523 12.38371757 -22.625 7.5 C-18.03777561 -2.01424319 -9.3861456 -3.88392232 0 0 Z " fill="#E9F7F7" transform="translate(586.625,554.5)"/>
<path d="M0 0 C10 0 10 0 14 3 C14.25 5.5 14.25 5.5 14 8 C13.85295708 10.94715645 13.85295708 10.94715645 14.75 13.4375 C15 16 15 16 13.75 18.3125 C9.31002534 21.03702991 5.1371495 20.24462617 0 20 C0 13.4 0 6.8 0 0 Z " fill="#DCE8F2" transform="translate(841,647)"/>
<path d="M0 0 C7.26 0 14.52 0 22 0 C22 1.65 22 3.3 22 5 C19.36 5 16.72 5 14 5 C14 12.92 14 20.84 14 29 C12.02 29 10.04 29 8 29 C8 21.08 8 13.16 8 5 C5.36 5 2.72 5 0 5 C0 3.35 0 1.7 0 0 Z " fill="#F9FBFD" transform="translate(656,553)"/>
<path d="M0 0 C1.32 0 2.64 0 4 0 C4.20496094 0.71027344 4.40992188 1.42054688 4.62109375 2.15234375 C4.89050781 3.07144531 5.15992188 3.99054687 5.4375 4.9375 C5.83775391 6.31228516 5.83775391 6.31228516 6.24609375 7.71484375 C6.79026051 9.9402493 6.79026051 9.9402493 8 11 C8.17015625 10.28972656 8.3403125 9.57945312 8.515625 8.84765625 C8.75796875 7.92855469 9.0003125 7.00945313 9.25 6.0625 C9.48203125 5.14597656 9.7140625 4.22945312 9.953125 3.28515625 C11 1 11 1 13.109375 0.18359375 C13.73328125 0.12300781 14.3571875 0.06242188 15 0 C15.47985967 1.27057182 15.9588593 2.54146848 16.4375 3.8125 C16.70433594 4.52019531 16.97117187 5.22789062 17.24609375 5.95703125 C17.86225186 7.62672396 18.43719235 9.31157704 19 11 C20.32 7.7 21.64 4.4 23 1 C23.99 1 24.98 1 26 1 C25.57415008 5.59917914 24.87074468 9.96817908 23.6875 14.4375 C23.35298828 15.70400391 23.35298828 15.70400391 23.01171875 16.99609375 C22 19 22 19 19.89453125 19.78515625 C19.26933594 19.85605469 18.64414062 19.92695312 18 20 C15.94356259 16.07407404 14.31061591 12.23429756 13 8 C12.79503906 8.69867187 12.59007812 9.39734375 12.37890625 10.1171875 C12.10949219 11.02726563 11.84007812 11.93734375 11.5625 12.875 C11.16224609 14.23238281 11.16224609 14.23238281 10.75390625 15.6171875 C10 18 10 18 9 20 C7.68 20 6.36 20 5 20 C4.16169027 17.23058394 3.32917966 14.45964931 2.5 11.6875 C2.26152344 10.90181641 2.02304687 10.11613281 1.77734375 9.30664062 C1.55175781 8.54931641 1.32617188 7.79199219 1.09375 7.01171875 C0.88427734 6.31522217 0.67480469 5.61872559 0.45898438 4.90112305 C0 3 0 3 0 0 Z " fill="#E8F3FB" transform="translate(706,647)"/>
<path d="M0 0 C0.99 0.99 1.98 1.98 3 3 C2.67 3.66 2.34 4.32 2 5 C1.89168448 7.99804714 1.84508055 10.97348714 1.84178162 13.97219849 C1.83684364 14.91312438 1.83190566 15.85405027 1.82681805 16.82348907 C1.81138474 19.9957682 1.80306669 23.16802701 1.79467773 26.34033203 C1.78510379 28.60660991 1.775094 30.87288599 1.76467896 33.13916016 C1.7375714 39.30825497 1.71659358 45.47735747 1.69667697 51.64647913 C1.67485341 58.08740305 1.64744701 64.52830309 1.62062073 70.96920776 C1.57632919 81.78528855 1.53550228 92.60137659 1.49731445 103.41748047 C1.45796678 114.55941728 1.41654231 125.70134317 1.37231445 136.84326172 C1.36959018 137.52974525 1.36686591 138.21622879 1.36405908 138.92351486 C1.35037972 142.36731011 1.33665943 145.81110521 1.32291877 149.25490022 C1.2089316 177.83657727 1.10220076 206.41827851 1 235 C0.67 235 0.34 235 0 235 C0 157.45 0 79.9 0 0 Z " fill="#086DC1" transform="translate(768,662)"/>
<path d="M0 0 C7.59 0 15.18 0 23 0 C23 1.65 23 3.3 23 5 C20.03 5 17.06 5 14 5 C14 12.92 14 20.84 14 29 C12.35 29 10.7 29 9 29 C9 21.08 9 13.16 9 5 C6.03 5 3.06 5 0 5 C0 3.35 0 1.7 0 0 Z " fill="#F6F8FB" transform="translate(848,553)"/>
<path d="M0 0 C7.26 0 14.52 0 22 0 C22 1.65 22 3.3 22 5 C19.36 5 16.72 5 14 5 C14 12.92 14 20.84 14 29 C12.35 29 10.7 29 9 29 C9 21.08 9 13.16 9 5 C6.03 5 3.06 5 0 5 C0 3.35 0 1.7 0 0 Z " fill="#E7F1FA" transform="translate(706,553)"/>
<path d="M0 0 C10 0 10 0 14 3 C14.375 6.0625 14.375 6.0625 14 9 C13.34 9.66 12.68 10.32 12 11 C12.3557806 14.37991574 13.35715799 17.04288438 15 20 C12.6875 19.8125 12.6875 19.8125 10 19 C7 14.96551724 7 14.96551724 7 12 C6.01 12 5.02 12 4 12 C4 14.64 4 17.28 4 20 C2.68 20 1.36 20 0 20 C0 13.4 0 6.8 0 0 Z " fill="#C8DFF2" transform="translate(761,647)"/>
<path d="M0 0 C10 0 10 0 14 3 C14.45947423 6.1506804 14.52225401 8.07837528 12.9375 10.875 C9.99772876 12.58196395 7.32129197 12.18799766 4 12 C4 14.64 4 17.28 4 20 C2.68 20 1.36 20 0 20 C0 13.4 0 6.8 0 0 Z " fill="#DFEEFA" transform="translate(659,647)"/>
<path d="M0 0 C4.29 0 8.58 0 13 0 C13.33 1.32 13.66 2.64 14 4 C10.7 4 7.4 4 4 4 C4 5.32 4 6.64 4 8 C6.97 8 9.94 8 13 8 C13 9.32 13 10.64 13 12 C10.03 12 7.06 12 4 12 C4 13.65 4 15.3 4 17 C7.3 17 10.6 17 14 17 C14 17.99 14 18.98 14 20 C9.38 20 4.76 20 0 20 C0 13.4 0 6.8 0 0 Z " fill="#C7D8EB" transform="translate(783,647)"/>
<path d="M0 0 C4.29 0 8.58 0 13 0 C13.33 0.66 13.66 1.32 14 2 C12.329375 2.2165625 12.329375 2.2165625 10.625 2.4375 C7.17857953 2.78372035 7.17857953 2.78372035 5 4 C5 6.97 5 9.94 5 13 C5.66 13 6.32 13 7 13 C7 13.99 7 14.98 7 16 C6.34 16 5.68 16 5 16 C5 20.29 5 24.58 5 29 C3.35 29 1.7 29 0 29 C0 19.43 0 9.86 0 0 Z " fill="#F3F5F7" transform="translate(952,553)"/>
<path d="M0 0 C4.29 0 8.58 0 13 0 C13 1.32 13 2.64 13 4 C10.03 4 7.06 4 4 4 C4 5.32 4 6.64 4 8 C6.64 8 9.28 8 12 8 C12 8.99 12 9.98 12 11 C9.03 11 6.06 11 3 11 C3 12.98 3 14.96 3 17 C6.3 17 9.6 17 13 17 C13 17.99 13 18.98 13 20 C8.71 20 4.42 20 0 20 C0 13.4 0 6.8 0 0 Z " fill="#DDEDF9" transform="translate(740,647)"/>
<path d="M0 0 C6.27 0 12.54 0 19 0 C19 1.65 19 3.3 19 5 C14.38 5 9.76 5 5 5 C5 4.67 5 4.34 5 4 C9.29 4 13.58 4 18 4 C18 3.01 18 2.02 18 1 C12.39 1 6.78 1 1 1 C1 9.25 1 17.5 1 26 C2.32 25.34 3.64 24.68 5 24 C8.453125 23.8046875 8.453125 23.8046875 12.25 23.875 C13.51328125 23.89304687 14.7765625 23.91109375 16.078125 23.9296875 C17.04234375 23.95289063 18.0065625 23.97609375 19 24 C19 25.65 19 27.3 19 29 C12.73 29 6.46 29 0 29 C0 19.43 0 9.86 0 0 Z " fill="#D2DBE5" transform="translate(920,553)"/>
<path d="M0 0 C1.65 0 3.3 0 5 0 C5 9.57 5 19.14 5 29 C3.35 29 1.7 29 0 29 C0 19.43 0 9.86 0 0 Z " fill="#ECF8F8" transform="translate(639,553)"/>
<path d="M0 0 C3.5625 0.3125 3.5625 0.3125 5.5 1.375 C7.1765629 4.43226176 6.92778977 6.9031288 6.5625 10.3125 C5.4375 12.25 5.4375 12.25 3.5625 13.3125 C0.47434125 13.69851984 -1.53934376 13.79151666 -4.3125 12.3125 C-6.19071874 8.97344446 -5.73829454 6.10251126 -5.4375 2.3125 C-3.4375 0.3125 -3.4375 0.3125 0 0 Z " fill="#0C84DA" transform="translate(689.4375,650.6875)"/>
<path d="M0 0 C6.3782235 -0.36103152 6.3782235 -0.36103152 8.9375 1.125 C10.52990283 3.93512264 10.45319325 5.82764724 10 9 C8.375 11.375 8.375 11.375 6 13 C4.02 13 2.04 13 0 13 C0 8.71 0 4.42 0 0 Z " fill="#1768AD" transform="translate(808,651)"/>
<path d="M0 0 C7.26 0 14.52 0 22 0 C22 0.33 22 0.66 22 1 C21.21753906 1.06058594 20.43507813 1.12117187 19.62890625 1.18359375 C18.11103516 1.30927734 18.11103516 1.30927734 16.5625 1.4375 C15.55316406 1.51871094 14.54382813 1.59992187 13.50390625 1.68359375 C11.06359221 1.73211468 11.06359221 1.73211468 10 3 C9.84213692 4.85174706 9.74892644 6.7090911 9.68359375 8.56640625 C9.64169922 9.69111328 9.59980469 10.81582031 9.55664062 11.97460938 C9.51732422 13.15861328 9.47800781 14.34261719 9.4375 15.5625 C9.39431641 16.75037109 9.35113281 17.93824219 9.30664062 19.16210938 C9.20016454 22.10794784 9.09815159 25.0538743 9 28 C10.32 28 11.64 28 13 28 C13 20.41 13 12.82 13 5 C13.33 5 13.66 5 14 5 C14 12.92 14 20.84 14 29 C12.02 29 10.04 29 8 29 C8 21.08 8 13.16 8 5 C5.36 5 2.72 5 0 5 C0 3.35 0 1.7 0 0 Z " fill="#B2D6F2" transform="translate(656,553)"/>
<path d="M0 0 C1.32 0 2.64 0 4 0 C7 4.07142857 7 4.07142857 7 7 C7.66 7 8.32 7 9 7 C9.66 5.02 10.32 3.04 11 1 C12.65 0.67 14.3 0.34 16 0 C15.06106129 2.60013796 14.24528148 4.70466108 12.46875 6.84375 C10.7085247 9.42791055 10.51619463 11.15384168 10.3125 14.25 C10.24675781 15.14203125 10.18101562 16.0340625 10.11328125 16.953125 C10.07589844 17.62859375 10.03851562 18.3040625 10 19 C8.68 19 7.36 19 6 19 C5.98582031 18.443125 5.97164062 17.88625 5.95703125 17.3125 C5.60724155 11.71586475 4.31367331 8.19339458 1.05859375 3.62890625 C0 2 0 2 0 0 Z " fill="#EEF4F9" transform="translate(862,648)"/>
<path d="M0 0 C0.33 0 0.66 0 1 0 C1.03738281 0.61488281 1.07476563 1.22976563 1.11328125 1.86328125 C1.17902344 2.67152344 1.24476563 3.47976563 1.3125 4.3125 C1.37050781 5.11300781 1.42851563 5.91351562 1.48828125 6.73828125 C2.10086186 9.44579401 2.76662447 10.37572689 5 12 C7.04100238 12.57017808 7.04100238 12.57017808 9.1875 12.6875 C11.0746875 12.8421875 11.0746875 12.8421875 13 13 C13 14.32 13 15.64 13 17 C9.15887745 17.87971287 5.63233909 18.64331596 1.87890625 17.1640625 C-1.52580534 14.94144412 -2.8057986 13.68617828 -3.9375 9.6875 C-3.958125 8.800625 -3.97875 7.91375 -4 7 C-3.01 6.67 -2.02 6.34 -1 6 C-0.67 4.02 -0.34 2.04 0 0 Z " fill="#DCEEFA" transform="translate(743,564)"/>
<path d="M0 0 C1.51400391 0.01740234 1.51400391 0.01740234 3.05859375 0.03515625 C4.07050781 0.04417969 5.08242188 0.05320312 6.125 0.0625 C7.29869141 0.07990234 7.29869141 0.07990234 8.49609375 0.09765625 C8.49609375 1.08765625 8.49609375 2.07765625 8.49609375 3.09765625 C5.52609375 3.09765625 2.55609375 3.09765625 -0.50390625 3.09765625 C-0.50390625 4.74765625 -0.50390625 6.39765625 -0.50390625 8.09765625 C2.79609375 8.09765625 6.09609375 8.09765625 9.49609375 8.09765625 C9.49609375 9.08765625 9.49609375 10.07765625 9.49609375 11.09765625 C5.20609375 11.09765625 0.91609375 11.09765625 -3.50390625 11.09765625 C-3.6015625 3.3828125 -3.6015625 3.3828125 -3.50390625 1.09765625 C-2.50390625 0.09765625 -2.50390625 0.09765625 0 0 Z " fill="#E6EDF5" transform="translate(787.50390625,655.90234375)"/>
<path d="M0 0 C1.98 0 3.96 0 6 0 C7.54487473 2.51042144 8.00259352 3.88069793 7.9375 6.875 C8.01210011 10.60500566 9.16834606 12.7946056 11 16 C8.6875 15.8125 8.6875 15.8125 6 15 C3 10.96551724 3 10.96551724 3 8 C2.01 7.67 1.02 7.34 0 7 C0 4.66666667 0 2.33333333 0 0 Z " fill="#E3ECF5" transform="translate(765,651)"/>
<path d="M0 0 C0.99 0.33 1.98 0.66 3 1 C2.505 1.33 2.01 1.66 1.5 2 C-0.93514285 5.24685713 -0.31660564 8.01076889 0 12 C2.35953094 14.35953094 3.77895617 14.49141413 7 15 C7 15.99 7 16.98 7 18 C2.74981621 18.41668469 0.64657432 18.44022082 -2.9375 16 C-5.23405504 12.6595563 -5.73303472 10.90141111 -5.5078125 6.9375 C-4.65875365 3.69801392 -2.53793611 2.03034889 0 0 Z " fill="#E9F3FC" transform="translate(685,649)"/>
<path d="M0 0 C6.0546875 -0.1953125 6.0546875 -0.1953125 8 0 C8.66 0.66 9.32 1.32 10 2 C9.44444444 6.55555556 9.44444444 6.55555556 8 8 C5.32941149 8.14115161 2.67567762 8.04247107 0 8 C0 5.36 0 2.72 0 0 Z " fill="#1B527E" transform="translate(957,558)"/>
<path d="M0 0 C2.46751239 3.70126859 2.30721156 5.62223532 2 10 C1 12.4375 1 12.4375 0 14 C-0.99 13.34 -1.98 12.68 -3 12 C-3.22265625 10.125 -3.22265625 10.125 -3.0625 8 C-2.87078993 5.91761107 -2.87078993 5.91761107 -3 4 C-5.76223278 1.23776722 -8.20706617 1.42143709 -12 1 C-12 0.67 -12 0.34 -12 0 C-7.28552628 -1.6639319 -4.43226292 -2.65935775 0 0 Z " fill="#E0E9F3" transform="translate(820,650)"/>
<path d="M0 0 C7.59 0 15.18 0 23 0 C23 1.65 23 3.3 23 5 C20.03 5 17.06 5 14 5 C14 4.67 14 4.34 14 4 C16.64 4 19.28 4 22 4 C22 3.01 22 2.02 22 1 C14.08 1.495 14.08 1.495 6 2 C6.99 2.99 7.98 3.98 9 5 C6.03 5 3.06 5 0 5 C0 3.35 0 1.7 0 0 Z " fill="#ACC6E1" transform="translate(848,553)"/>
<path d="M0 0 C0.33 0.99 0.66 1.98 1 3 C-0.9914056 3.38133299 -2.99279077 3.71325582 -5 4 C-5.33 3.67 -5.66 3.34 -6 3 C-7.34747084 2.76924918 -8.70377565 2.58846937 -10.0625 2.4375 C-11.361875 2.293125 -12.66125 2.14875 -14 2 C-14.33 1.01 -14.66 0.02 -15 -1 C-3.9999206 -2.58059393 -3.9999206 -2.58059393 0 0 Z " fill="#E3E9EF" transform="translate(971,556)"/>
<path d="M0 0 C0.66 0 1.32 0 2 0 C2 1.98 2 3.96 2 6 C3.65 6 5.3 6 7 6 C6.01 6.66 5.02 7.32 4 8 C3.42006301 10.19454681 3.42006301 10.19454681 3.3125 12.625 C3.21388672 13.85089844 3.21388672 13.85089844 3.11328125 15.1015625 C3.05720703 16.04128906 3.05720703 16.04128906 3 17 C2.01 17 1.02 17 0 17 C0 11.39 0 5.78 0 0 Z " fill="#ECF5FB" transform="translate(762,650)"/>
<path d="M0 0 C3.48331435 3.01887244 4.79157144 5.56909529 6 10 C3.6875 10.25 3.6875 10.25 1 10 C-1.40311451 7.76261752 -1.96341425 6.53659096 -2.1875 3.25 C-2.125625 2.5075 -2.06375 1.765 -2 1 C-1.34 0.67 -0.68 0.34 0 0 Z " fill="#E6EBF1" transform="translate(967,572)"/>
<path d="M0 0 C0.33 1.32 0.66 2.64 1 4 C-2.21182149 5.90608098 -4.53882603 6.22266247 -8.25 6.125 C-9.14203125 6.10695313 -10.0340625 6.08890625 -10.953125 6.0703125 C-11.96632813 6.03550781 -11.96632813 6.03550781 -13 6 C-13 5.01 -13 4.02 -13 3 C-10 2 -10 2 -7.0625 2.0625 C-4.01668705 2.00034055 -2.55108399 1.56989784 0 0 Z " fill="#EDF3F9" transform="translate(818,661)"/>
<path d="M0 0 C0.99 0 1.98 0 3 0 C2.52060632 4.71403788 2.03165952 8.66579301 0 13 C-0.99 13 -1.98 13 -3 13 C-2.52060632 8.28596212 -2.03165952 4.33420699 0 0 Z " fill="#EFF6FC" transform="translate(729,648)"/>
<path d="M0 0 C1.32 0.33 2.64 0.66 4 1 C4.33 2.65 4.66 4.3 5 6 C4.34 6 3.68 6 3 6 C2.67 6.99 2.34 7.98 2 9 C1.01 8.67 0.02 8.34 -1 8 C-1.99 8.495 -1.99 8.495 -3 9 C-2.01 6.03 -1.02 3.06 0 0 Z " fill="#D0E6F8" transform="translate(718,647)"/>
<path d="M0 0 C0 3.63 0 7.26 0 11 C-1.32 11 -2.64 11 -4 11 C-4.08096803 9.54257537 -4.13917774 8.08387193 -4.1875 6.625 C-4.22230469 5.81289063 -4.25710938 5.00078125 -4.29296875 4.1640625 C-4.19628906 3.44992187 -4.09960938 2.73578125 -4 2 C-1 0 -1 0 0 0 Z " fill="#D8E4F0" transform="translate(872,656)"/>
<path d="M0 0 C2.31 0 4.62 0 7 0 C6.67 1.65 6.34 3.3 6 5 C4.02 5 2.04 5 0 5 C0 3.35 0 1.7 0 0 Z " fill="#276DAE" transform="translate(845,659)"/>
<path d="M0 0 C2.97 0 5.94 0 9 0 C8.67 0.66 8.34 1.32 8 2 C8.66 2.66 9.32 3.32 10 4 C6.7 4 3.4 4 0 4 C0 2.68 0 1.36 0 0 Z " fill="#085A9D" transform="translate(787,659)"/>
<path d="M0 0 C2.97 0 5.94 0 9 0 C8.34 0.66 7.68 1.32 7 2 C7.33 2.66 7.66 3.32 8 4 C5.36 4 2.72 4 0 4 C0 2.68 0 1.36 0 0 Z " fill="#0678D0" transform="translate(744,651)"/>
<path d="M0 0 C1.98 0 3.96 0 6 0 C5.67 1.65 5.34 3.3 5 5 C3.35 5 1.7 5 0 5 C0 3.35 0 1.7 0 0 Z " fill="#1A7DCB" transform="translate(765,651)"/>
<path d="M0 0 C1.98 0 3.96 0 6 0 C5.67 1.65 5.34 3.3 5 5 C3.35 5 1.7 5 0 5 C0 3.35 0 1.7 0 0 Z " fill="#1688E0" transform="translate(663,651)"/>
<path d="M0 0 C2.31 0 4.62 0 7 0 C7 1.32 7 2.64 7 4 C4.36 4 1.72 4 -1 4 C-0.67 2.68 -0.34 1.36 0 0 Z " fill="#DCEBF8" transform="translate(721,554)"/>
<path d="M0 0 C0.99 0.495 0.99 0.495 2 1 C3.99960012 1.039992 6.00047242 1.04346799 8 1 C7.67 3.97 7.34 6.94 7 10 C6.67 10 6.34 10 6 10 C6 8.02 6 6.04 6 4 C4.02 4 2.04 4 0 4 C0 2.68 0 1.36 0 0 Z " fill="#CEDFEE" transform="translate(794,566)"/>
<path d="M0 0 C2 2 2 2 2.4375 4.875 C2 8 2 8 -0.5 10.375 C-1.325 10.91125 -2.15 11.4475 -3 12 C-2.01 8.04 -1.02 4.08 0 0 Z " fill="#2FB4BB" transform="translate(652,430)"/>
<path d="M0 0 C0 3 0 3 -1.96875 5.26171875 C-2.8040625 6.06222656 -3.639375 6.86273438 -4.5 7.6875 C-5.3353125 8.49574219 -6.170625 9.30398437 -7.03125 10.13671875 C-7.6809375 10.75160156 -8.330625 11.36648437 -9 12 C-9.66 11.67 -10.32 11.34 -11 11 C-9.73347137 9.53792657 -8.46161082 8.08047074 -7.1875 6.625 C-6.47980469 5.81289062 -5.77210938 5.00078125 -5.04296875 4.1640625 C-3 2 -3 2 0 0 Z " fill="#1D904C" transform="translate(215,143)"/>
<path d="M0 0 C-1.1875 1.5 -1.1875 1.5 -3 3 C-4.175625 2.9690625 -4.175625 2.9690625 -5.375 2.9375 C-8.9715577 3.02313233 -10.40994025 4.63194537 -13 7 C-10.30332745 0.48304134 -6.81821784 -0.39335872 0 0 Z " fill="#D6EBFA" transform="translate(693,647)"/>
<path d="M0 0 C1.98 0 3.96 0 6 0 C6 1.32 6 2.64 6 4 C4.02 4 2.04 4 0 4 C0 2.68 0 1.36 0 0 Z " fill="#0F599F" transform="translate(845,651)"/>
<path d="M0 0 C1.98 0.495 1.98 0.495 4 1 C3.34 3.64 2.68 6.28 2 9 C0.05276405 6.07914607 -0.55175352 4.40667322 -1 1 C-0.67 0.67 -0.34 0.34 0 0 Z " fill="#2093E8" transform="translate(724,652)"/>
<path d="M0 0 C0.33 0 0.66 0 1 0 C1.125 2.875 1.125 2.875 1 6 C0.34 6.66 -0.32 7.32 -1 8 C-1.66 8 -2.32 8 -3 8 C-2.25 2.25 -2.25 2.25 0 0 Z " fill="#E6F2FA" transform="translate(717,654)"/>
<path d="M0 0 C0.99 0 1.98 0 3 0 C3 0.99 3 1.98 3 3 C-1.95 3 -6.9 3 -12 3 C-12 2.67 -12 2.34 -12 2 C-8.04 2 -4.08 2 0 2 C0 1.34 0 0.68 0 0 Z " fill="#F9FBFC" transform="translate(835,578)"/>
<path d="M0 0 C1.65 0 3.3 0 5 0 C4.67 0.66 4.34 1.32 4 2 C5.32 2.66 6.64 3.32 8 4 C5.36 4 2.72 4 0 4 C-0.33 3.34 -0.66 2.68 -1 2 C-0.67 1.34 -0.34 0.68 0 0 Z " fill="#F6FBFB" transform="translate(575,553)"/>
<path d="M0 0 C0 0.99 0 1.98 0 3 C-0.66 2.67 -1.32 2.34 -2 2 C-1.34 1.34 -0.68 0.68 0 0 Z M-2 3 C-3.22934015 6.68802044 -4.93859378 7.72356973 -8 10 C-8.66 9.67 -9.32 9.34 -10 9 C-9.0479279 7.99403703 -8.08812654 6.99538437 -7.125 6 C-6.59132813 5.443125 -6.05765625 4.88625 -5.5078125 4.3125 C-4 3 -4 3 -2 3 Z " fill="#8DC752" transform="translate(531,358)"/>
<path d="M0 0 C0.99 0 1.98 0 3 0 C2.67 3.3 2.34 6.6 2 10 C1.67 10 1.34 10 1 10 C1 7.69 1 5.38 1 3 C0.01 2.67 -0.98 2.34 -2 2 C-1.34 1.34 -0.68 0.68 0 0 Z " fill="#FCFCFD" transform="translate(741,560)"/>
<path d="M0 0 C1.32 0 2.64 0 4 0 C3.34 1.65 2.68 3.3 2 5 C0.68 5 -0.64 5 -2 5 C-1.34 3.35 -0.68 1.7 0 0 Z " fill="#DFE8F3" transform="translate(874,648)"/>
<path d="M0 0 C4.46840411 0.49648935 5.68987756 0.68987756 9 4 C6.03 4 3.06 4 0 4 C0 2.68 0 1.36 0 0 Z " fill="#C8DBED" transform="translate(848,554)"/>
<path d="M0 0 C1.98 0 3.96 0 6 0 C6.33 0.99 6.66 1.98 7 3 C4.36 3 1.72 3 -1 3 C-0.67 2.01 -0.34 1.02 0 0 Z " fill="#D3E6F6" transform="translate(671,555)"/>
<path d="M0 0 C-1.39332574 3.36720387 -2.9789286 4.9859524 -6 7 C-6 4 -6 4 -4.125 1.8125 C-2 0 -2 0 0 0 Z " fill="#1C65AC" transform="translate(838,472)"/>
</svg>
